<svg width="100%" height="100%" viewBox="0 0 751 1084" fill="none" xmlns="http://www.w3.org/2000/svg">
    <path
    d="M301.48 1004.48C296.326 1004.19 291.396 1003.88 286.447 1003.67C276.156 1003.24 265.885 1002.63 255.594 1002.55C241.401 1002.44 227.226 1002.72 213.033 1002.92C205.301 1003.04 197.551 1003.63 189.838 1003.45C183.115 1003.28 176.41 1002.01 169.687 1001.8C160.237 1001.54 150.769 1002.16 141.337 1001.79C124.361 1001.09 107.404 999.936 90.4466 999.002C81.8745 998.516 73.153 998.946 64.7677 997.414C54.6642 995.583 44.2993 993.304 36.1568 986.355C31.0583 982.002 26.1653 977.22 22.0941 971.933C19.8903 969.094 19.218 964.853 18.471 961.117C16.4914 951.253 14.4558 941.352 13.2045 931.377C11.9346 921.289 11.3369 911.108 10.8514 900.945C10.1604 886.916 9.71217 872.887 9.41336 858.857C9.24528 851.273 9.86158 843.688 9.71217 836.104C9.45071 822.28 8.79707 808.456 8.49826 794.632C8.31151 786.095 8.61032 777.539 8.49826 769.002C8.36753 758.148 8.0127 747.295 7.82594 736.46C7.71389 730.351 7.97535 724.242 7.63919 718.152C7.19097 710.213 6.05176 702.292 5.69693 694.353C5.34209 686.245 5.6409 678.119 5.54753 669.993C5.47282 661.661 5.21137 653.329 5.15534 644.998C5.06196 631.865 5.09931 618.732 5.04329 605.581C4.96858 588.039 4.8005 570.479 4.74448 552.938C4.70713 539.936 4.63242 526.934 4.8005 513.951C4.94991 501.715 5.54752 489.497 5.67825 477.261C5.82766 463.792 5.5662 450.305 5.7156 436.836C5.82766 426.057 6.36925 415.278 6.57468 404.499C6.68673 398.353 6.23852 392.169 6.49998 386.042C6.91084 376.291 7.88197 366.577 8.33018 356.825C8.70369 348.736 8.72237 340.629 8.79707 332.54C8.9278 320.192 9.03985 307.825 9.0025 295.477C8.96515 286.118 8.72237 276.74 8.47959 267.381C8.27416 259.124 8.12475 250.867 7.58316 242.628C6.78011 230.486 5.62223 218.38 4.66977 206.257C3.82937 195.478 2.93295 184.699 2.33533 173.901C1.98049 167.344 2.29798 160.731 2.03652 154.155C1.4389 137.361 0.4491 120.623 0.000886415 103.866C-0.148518 98.4114 1.4389 92.9005 1.45758 87.427C1.47625 77.9931 1.56963 68.6713 3.64262 59.3495C7.47111 42.219 16.6595 28.7687 30.3673 18.158C44.6541 7.08016 60.9579 1.96157 78.9238 0.411054C86.8609 -0.280141 94.5179 -0.130694 102.231 1.08357C108.17 1.99894 113.996 3.94176 119.954 4.35274C129.124 5.00657 138.368 4.81976 147.575 4.8758C153.663 4.91317 159.752 4.68899 165.821 4.65163C183.096 4.57691 200.352 4.46482 217.627 4.52087C232.96 4.57691 248.311 4.63295 263.644 5.09997C275.222 5.45491 286.783 6.78126 298.38 7.17356C310.426 7.58454 322.509 7.11752 334.573 7.54718C343.911 7.86476 353.212 9.15374 362.549 9.67681C370.244 10.0878 377.957 9.7889 385.651 10.1999C393.084 10.5922 400.479 11.8625 407.931 12.0867C415.607 12.3108 423.301 11.5636 430.977 11.6009C441.995 11.6383 452.995 12.068 464.014 12.1987C474.976 12.3295 485.939 12.3108 496.883 12.3295C512.309 12.3482 527.735 12.0867 543.161 12.3669C561.911 12.7218 580.661 13.9547 599.411 13.9921C609.758 14.0108 620.085 12.0119 630.45 11.5636C637.379 11.2647 644.382 11.8625 651.311 12.4416C659.827 13.1701 668.604 13.2262 676.747 15.5053C690.641 19.3722 704.947 22.9216 716.451 32.4302C722.315 37.2873 725.826 43.7509 728.459 50.9991C733.483 64.823 733.558 79.1887 734.23 93.517C734.361 96.2444 732.083 99.7751 733.147 101.606C736.247 106.893 735.22 112.702 736.415 118.157C737.461 122.939 736.807 128.077 737.05 133.046C737.368 139.864 737.685 146.664 738.227 153.464C738.768 160.301 739.964 167.083 740.244 173.92C740.897 188.939 741.29 203.996 741.532 219.034C741.626 225.031 740.935 231.027 740.841 237.043C740.729 244.926 740.729 252.809 740.916 260.693C741.271 274.554 741.57 288.415 742.317 302.258C742.877 312.701 744.427 323.106 744.987 333.549C745.678 346.737 745.716 359.963 746.201 373.171C746.481 380.811 747.247 388.452 747.602 396.092C748.143 408.142 748.386 420.21 749.021 432.24C749.507 441.356 750.833 450.454 751.001 459.589C751.225 471.862 750.646 484.136 750.459 496.428C750.31 506.198 750.403 515.968 750.086 525.738C749.806 534.369 749.04 542.981 748.592 551.63C748.106 561.438 747.527 571.245 747.378 581.053C747.247 589.609 747.863 598.183 747.77 606.739C747.658 617.07 747.396 627.4 746.761 637.693C746.257 645.614 744.67 653.46 744.278 661.381C743.773 671.936 744.11 682.546 743.811 693.12C743.568 701.601 742.746 710.082 742.541 718.563C742.223 731.397 742.13 744.249 742.111 757.083C742.093 774.662 742.149 792.222 742.391 809.801C742.485 816.75 743.512 823.681 743.493 830.63C743.475 838.458 742.672 846.266 742.335 854.094C742.093 859.735 742.503 865.414 741.868 871C740.841 879.929 739.273 888.784 737.76 897.639C735.818 908.997 734.529 920.542 731.485 931.582C727.918 944.528 725.247 957.698 719.794 970.214C712.23 987.55 698.691 995.789 681.21 997.694C668.007 999.151 654.542 998.068 641.207 998.516C633.7 998.778 626.229 999.954 618.722 1000.51C614.128 1000.87 609.515 1000.81 604.902 1000.96C592.203 1001.41 579.485 1002.08 566.785 1002.31C554.553 1002.51 542.302 1002.21 530.069 1002.21C516.884 1002.23 503.718 1001.3 490.533 1000.96C486.835 1000.87 483.081 1002.4 479.365 1002.31C472.343 1002.14 465.34 1001.24 458.318 1000.87C452.005 1000.53 445.693 1000.48 439.362 1000.27C438.876 1000.25 438.372 1000.22 437.887 1000.1C431.518 998.497 428.661 1002.44 425.542 1007.09C417.81 1018.58 409.388 1029.58 401.656 1041.07C397.435 1047.37 394.354 1054.43 390.264 1060.84C386.062 1067.45 381.841 1074.21 376.593 1079.96C370.785 1086.32 363.259 1084.8 356.106 1077.82C346.619 1068.55 338.831 1057.85 330.39 1047.72C327.047 1043.72 325.534 1038.25 322.733 1033.71C318.662 1027.14 314.31 1020.73 309.828 1014.43C307.326 1010.94 304.3 1007.8 301.48 1004.48ZM365.108 1044.51C366.154 1042.7 366.621 1041.67 367.274 1040.79C373.194 1032.83 379.544 1025.14 384.96 1016.84C387.799 1012.49 388.098 1006.4 391.179 1002.33C397.827 993.565 405.316 985.365 413.011 977.481C414.99 975.445 418.987 974.847 422.143 974.586C430.958 973.857 439.829 973.801 448.644 973.147C453.966 972.755 459.251 971.186 464.574 971.074C475.742 970.831 486.929 971.354 498.096 971.298C505.903 971.26 513.728 970.308 521.516 970.644C534.084 971.167 546.616 972.904 559.184 973.185C574.069 973.502 588.953 972.662 603.856 972.624C614.837 972.606 625.837 973.334 636.818 973.222C644.681 973.128 652.543 972.381 660.368 971.541C666.158 970.924 672.097 970.401 677.569 968.626C684.142 966.497 691.874 964.535 696.263 959.846C702.463 953.233 707.188 944.621 710.475 936.047C714.341 925.997 716.675 915.218 718.412 904.532C720.952 888.877 722.502 873.073 724.22 857.288C724.874 851.31 725.098 845.239 725.023 839.223C724.892 828.258 724.295 817.292 724.089 806.326C723.847 793.623 723.735 780.902 723.66 768.198C723.585 755.888 723.436 743.558 723.66 731.248C723.903 718.488 724.519 705.729 725.004 692.97C725.341 684.059 725.527 675.149 726.144 666.256C727.077 653.161 728.945 640.084 729.337 626.97C729.879 609.336 729.113 591.663 729.449 574.01C729.711 560.186 730.943 546.381 731.466 532.557C732.008 518.21 732.4 503.863 732.549 489.497C732.736 471.395 732.942 453.275 732.531 435.173C732.307 424.992 730.701 414.848 729.991 404.667C729.206 393.328 728.534 381.988 728.161 370.649C727.787 359.646 728.273 348.624 727.582 337.658C726.853 326.095 724.762 314.606 724.015 303.043C723.1 288.901 722.782 274.722 722.502 260.543C722.259 247.336 722.353 234.11 722.409 220.884C722.446 211.842 723.062 202.782 722.651 193.759C722.128 182.083 720.728 170.445 719.962 158.77C719.252 147.785 719.028 136.782 718.281 125.798C717.684 117.018 716.582 108.294 715.779 99.5322C715.648 98.0564 715.891 96.5433 715.947 95.0488C721.755 95.6092 718.431 91.0324 718.188 89.7994C716.115 78.8711 713.575 68.0361 711.054 57.2012C709.616 50.9804 705.731 46.2915 700.073 43.8069C693.349 40.8367 686.346 38.3147 679.231 36.5213C673.012 34.9521 666.494 34.5598 660.088 33.85C653.813 33.1401 647.501 32.1126 641.226 32.206C628.452 32.3555 615.696 33.3643 602.922 33.6258C594.537 33.7939 586.133 33.3082 577.729 33.0093C570.707 32.7478 563.685 32.206 556.644 32.0379C545.57 31.7951 534.495 31.6269 523.439 31.683C511.692 31.739 499.945 32.3368 488.198 32.206C473.874 32.0566 459.569 31.2907 445.245 30.9731C435.123 30.7489 425 30.861 414.86 30.7676C407.726 30.7116 400.591 30.8237 393.476 30.4314C386.006 30.0391 378.573 28.7874 371.103 28.5259C359.449 28.1336 347.758 28.3578 336.105 28.1149C322.976 27.8347 309.866 27.405 296.737 26.8446C291.171 26.6018 285.625 25.5183 280.041 25.4062C268.705 25.1633 257.35 25.4622 246.014 25.2567C237.33 25.0886 228.664 24.2106 219.999 24.1359C211.819 24.0611 203.77 25.4809 195.441 24.4908C186.514 23.426 177.344 24.4348 168.286 24.4161C153.701 24.3974 139.115 24.3787 124.529 24.1919C112.876 24.0238 101.222 23.8183 89.6062 23.1645C85.0867 22.9029 80.6793 20.9788 76.1411 20.4744C67.1955 19.4843 59.3891 23.2205 51.452 26.7699C39.9479 31.9072 32.5897 41.0421 26.5202 51.3727C22.4302 58.322 22.7477 66.5043 22.4863 74.3129C22.1874 83.3545 22.1874 92.4148 22.1874 101.456C22.1874 108.63 22.5423 115.822 22.3929 122.996C22.1874 133.251 21.179 143.489 21.3657 153.726C21.6272 168.297 22.5423 182.849 23.42 197.402C24.3165 212.122 25.493 226.824 26.5762 241.526C27.2672 251.016 28.2383 260.506 28.5745 270.015C28.8546 277.898 28.201 285.819 28.2757 293.739C28.3691 303.099 29.1161 312.439 28.9667 321.78C28.8359 329.812 27.6034 337.808 27.3045 345.841C27.0057 353.78 27.3792 361.738 27.3045 369.678C27.0991 389.311 26.7443 408.945 26.5949 428.579C26.5202 438.76 27.0244 448.941 26.8003 459.103C26.4081 476.159 25.4743 493.215 25.1008 510.27C24.8394 521.628 25.2876 533.005 25.1569 544.382C25.0635 552.303 24.2978 560.223 24.2231 568.125C24.0923 581.706 24.2791 595.306 24.3351 608.887C24.3725 618.601 24.3912 628.334 24.4659 638.048C24.5592 648.304 24.8207 658.541 24.7833 668.797C24.746 678.156 23.6441 687.571 24.3912 696.856C25.4743 710.101 27.622 723.196 26.6883 736.609C26.0159 746.248 26.5949 755.962 26.7256 765.658C26.8377 773.41 26.9124 781.163 27.3979 788.897C27.8275 795.958 28.9293 802.982 29.4149 810.025C29.8071 815.667 29.7884 821.346 29.8257 827.025C29.8444 832.517 29.4522 838.009 29.6577 843.464C29.9751 851.852 30.7969 860.221 31.133 868.627C31.4505 876.772 31.3945 884.936 31.5439 893.081C31.7493 904.794 31.768 916.525 32.2722 928.22C32.5897 935.505 33.4114 942.791 34.476 950.002C35.2043 954.915 49.4911 964.348 55.7101 965.077C61.3127 965.731 66.8594 967.02 72.406 968.141C79.3346 969.542 86.1699 971.802 93.1545 972.307C103.314 973.054 113.418 973.073 123.558 975.053C133.718 977.033 144.288 977.014 154.672 977.649C165.485 978.322 176.335 978.994 187.167 979.2C198.092 979.405 209.036 979.088 219.962 978.92C225.564 978.826 231.148 978.565 236.732 978.322C247.247 977.874 257.761 977.276 268.275 976.958C277.688 976.659 287.1 976.528 296.494 976.528C305.944 976.528 315.879 975.09 322.192 985.066C323.536 987.195 326.487 988.297 327.925 990.408C335.881 1002.05 343.594 1013.83 351.4 1025.57C352.539 1027.28 353.791 1028.93 355.004 1030.59C358.198 1035.06 361.429 1039.48 365.108 1044.51Z"
    fill="black"
    />
    <path
    d="M365.107 1044.51C361.428 1039.46 358.197 1035.06 354.966 1030.63C353.752 1028.97 352.52 1027.32 351.362 1025.6C343.555 1013.87 335.843 1002.07 327.887 990.446C326.449 988.335 323.498 987.251 322.153 985.103C315.841 975.146 305.906 976.566 296.456 976.566C287.043 976.566 277.631 976.697 268.237 976.995C257.723 977.332 247.208 977.911 236.694 978.359C231.11 978.602 225.507 978.864 219.923 978.957C208.998 979.144 198.054 979.443 187.129 979.237C176.297 979.032 165.465 978.359 154.634 977.687C144.231 977.051 133.661 977.07 123.52 975.09C113.379 973.11 103.276 973.091 93.1163 972.344C86.1317 971.84 79.2964 969.56 72.3678 968.178C66.8212 967.057 61.2745 965.768 55.6719 965.114C49.4529 964.386 35.1661 954.952 34.4378 950.039C33.3732 942.828 32.5515 935.542 32.234 928.257C31.7298 916.563 31.7111 904.831 31.5057 893.118C31.375 884.973 31.4123 876.809 31.0948 868.665C30.7587 860.277 29.9369 851.908 29.6195 843.501C29.414 838.028 29.8062 832.536 29.7875 827.062C29.7689 821.402 29.7689 815.723 29.3767 810.062C28.8911 803.001 27.7893 795.996 27.3597 788.934C26.8928 781.2 26.7994 773.448 26.6874 765.695C26.5567 756.018 25.9777 746.286 26.65 736.646C27.5838 723.233 25.4361 710.138 24.353 696.893C23.6059 687.609 24.7078 678.194 24.7451 668.834C24.7825 658.579 24.5024 648.341 24.4277 638.086C24.353 628.371 24.3343 618.639 24.2969 608.925C24.2409 595.343 24.0541 581.744 24.1849 568.163C24.2596 560.242 25.0253 552.321 25.1186 544.419C25.2494 533.042 24.8198 521.666 25.0626 510.308C25.4548 493.252 26.3886 476.196 26.7621 459.141C26.9862 448.978 26.482 438.797 26.5567 428.616C26.7061 408.982 27.0609 389.349 27.2663 369.715C27.341 361.775 26.9675 353.817 27.2663 345.878C27.5651 337.845 28.7977 329.831 28.9285 321.817C29.0779 312.476 28.3122 303.117 28.2375 293.777C28.1628 285.875 28.8164 277.954 28.5363 270.052C28.2001 260.543 27.229 251.053 26.538 241.563C25.4735 226.862 24.2783 212.16 23.3818 197.439C22.5041 182.887 21.589 168.334 21.3275 153.763C21.1408 143.526 22.1306 133.27 22.3547 123.033C22.5041 115.859 22.1492 108.667 22.1492 101.494C22.1679 92.4521 22.1492 83.3918 22.448 74.3502C22.7095 66.5229 22.392 58.3593 26.482 51.41C32.5515 41.0981 39.9097 31.9444 51.4138 26.8072C59.3696 23.2578 67.1573 19.5216 76.1029 20.5117C80.6411 21.0161 85.0485 22.9402 89.568 23.2018C101.184 23.8556 112.838 24.0611 124.491 24.2292C139.077 24.4347 153.662 24.4347 168.248 24.4534C177.306 24.4721 186.475 23.4633 195.402 24.5281C203.732 25.5182 211.799 24.0984 219.961 24.1732C228.645 24.2479 237.31 25.1259 245.976 25.294C257.312 25.4995 268.667 25.2006 280.003 25.4435C285.568 25.5556 291.115 26.6577 296.699 26.8819C309.809 27.4423 322.938 27.872 336.067 28.1522C347.739 28.3951 359.411 28.1522 371.065 28.5632C378.535 28.8247 385.968 30.0577 393.438 30.4686C400.553 30.8423 407.706 30.7489 414.821 30.8049C424.944 30.8796 435.084 30.7862 445.207 31.0104C459.531 31.328 473.836 32.0752 488.16 32.2433C499.907 32.3741 511.654 31.7576 523.401 31.7203C534.476 31.6642 545.55 31.8324 556.606 32.0752C563.647 32.2247 570.669 32.7851 577.691 33.0466C586.095 33.3455 594.499 33.8312 602.884 33.6631C615.658 33.4202 628.414 32.3928 641.188 32.2433C647.463 32.1686 653.775 33.1774 660.05 33.8873C666.456 34.6158 672.974 35.0081 679.193 36.5586C686.308 38.352 693.311 40.8926 700.034 43.8442C705.693 46.3288 709.559 51.0177 711.016 57.2385C713.537 68.0734 716.077 78.9084 718.15 89.8367C718.393 91.0697 721.717 95.6465 715.909 95.0861C715.834 96.5806 715.61 98.0937 715.741 99.5695C716.544 108.331 717.646 117.074 718.243 125.835C718.99 136.819 719.214 147.822 719.924 158.807C720.69 170.482 722.09 182.121 722.613 193.796C723.005 202.819 722.389 211.879 722.37 220.921C722.314 234.147 722.221 247.355 722.464 260.581C722.725 274.76 723.043 288.938 723.977 303.08C724.724 314.643 726.815 326.132 727.544 337.696C728.235 348.661 727.749 359.702 728.123 370.686C728.515 382.044 729.168 393.384 729.953 404.704C730.662 414.885 732.268 425.029 732.493 435.21C732.903 453.312 732.698 471.433 732.511 489.535C732.362 503.881 731.97 518.247 731.428 532.594C730.905 546.418 729.673 560.223 729.411 574.047C729.075 591.701 729.841 609.373 729.299 627.008C728.907 640.122 727.039 653.18 726.106 666.294C725.471 675.186 725.303 684.097 724.966 693.008C724.481 705.767 723.846 718.526 723.622 731.285C723.398 743.596 723.547 755.925 723.622 768.236C723.696 780.957 723.79 793.661 724.051 806.364C724.275 817.329 724.854 828.295 724.985 839.261C725.06 845.276 724.836 851.347 724.182 857.325C722.464 873.092 720.932 888.915 718.374 904.569C716.637 915.236 714.303 926.034 710.437 936.084C707.15 944.64 702.425 953.252 696.225 959.884C691.836 964.573 684.104 966.534 677.53 968.664C672.059 970.438 666.12 970.962 660.33 971.578C652.505 972.4 644.643 973.166 636.78 973.259C625.799 973.39 614.799 972.643 603.818 972.661C588.934 972.699 574.031 973.539 559.146 973.222C546.577 972.942 534.046 971.204 521.478 970.681C513.69 970.364 505.865 971.298 498.058 971.335C486.89 971.391 475.704 970.887 464.536 971.111C459.213 971.223 453.947 972.792 448.605 973.185C439.791 973.838 430.92 973.894 422.105 974.623C418.949 974.884 414.971 975.482 412.973 977.519C405.278 985.402 397.808 993.603 391.141 1002.36C388.059 1006.42 387.761 1012.53 384.922 1016.88C379.506 1025.17 373.175 1032.87 367.236 1040.83C366.62 1041.69 366.153 1042.7 365.107 1044.51Z"
    fill="white"
    />
</svg>