<svg width="146" height="109" viewBox="0 0 146 109" fill="none" xmlns="http://www.w3.org/2000/svg">
<path d="M137.343 103.99C136.61 105.882 135.987 106.246 133.892 106.128C132.661 106.057 131.463 105.979 130.978 104.571C130.842 104.169 130.748 103.737 130.732 103.316C130.583 98.9297 130.437 94.5401 130.333 90.1493C130.298 88.5827 130.41 87.0101 130.41 85.442C130.411 83.8738 130.444 82.2981 130.307 80.7363C130.164 79.0904 128.865 77.9612 127.967 76.7614C125.881 73.9751 123.957 71.1114 122.338 68.0353C122.293 67.9525 122.187 67.9003 121.941 67.6894C121.826 68.908 121.741 69.987 122.129 71.0492C122.736 72.708 122.437 73.7272 120.863 74.341C120.517 74.4768 120.224 74.7527 119.896 74.9403C118.51 75.7235 116.994 74.9184 116.893 73.3371C116.835 72.4142 116.764 71.4879 116.793 70.5685C116.909 66.5015 117.065 62.439 117.193 58.3724C117.205 58.0011 117.124 57.629 117.075 57.1353C115.623 57.2023 114.223 57.2383 112.826 57.3405C108.881 57.63 104.94 57.9646 100.996 58.2391C99.8189 58.3202 98.6279 58.2898 97.446 58.2598C93.5888 58.1631 89.7822 58.815 85.9509 59.0401C82.6062 59.2341 79.2398 59.1483 75.8858 59.054C71.9842 58.9434 68.0959 58.6536 64.1854 58.8395C61.052 58.991 57.9078 58.8183 54.7671 58.8556C52.3277 58.8855 49.8906 59.0773 47.4522 59.0802C44.4717 59.082 41.4939 58.9431 38.5121 58.9029C37.4283 58.8888 36.3438 58.9677 35.263 59.0287C32.0928 59.2028 28.9222 59.3858 25.5596 59.576C25.5964 61.3316 25.6146 62.8824 25.6688 64.4288C25.7658 67.1403 25.8749 69.8492 25.9989 72.5588C26.0837 74.4602 25.0243 75.4726 23.2136 75.2132C22.3648 75.0917 21.78 74.7381 21.6948 73.8082C21.5553 72.2973 21.4067 70.7861 21.2643 69.2721C21.2348 68.9651 21.2264 68.6529 21.1923 68.0909C20.2284 68.9632 19.7554 69.9185 19.24 70.812C17.6104 73.6273 16.0568 76.4905 14.4096 79.2961C13.9849 80.0194 13.3292 80.6044 12.6216 81.4362C12.6549 82.0942 12.7256 83.0116 12.7423 83.9328C12.8186 87.8937 12.8471 91.8557 12.9626 95.8123C13.0047 97.2142 13.2928 98.6082 13.3858 100.009C13.4779 101.362 13.2323 101.73 11.9595 102.17C10.9449 102.519 9.9076 102.836 8.8516 103.024C7.00506 103.354 6.07022 102.62 5.96459 100.715C5.86514 98.8791 5.94274 97.0352 5.88827 95.198C5.76629 91.0313 5.56932 86.8676 5.49233 82.6997C5.45786 80.8124 5.61216 78.9237 5.70951 77.0356C5.98107 71.7306 6.25873 66.4227 6.56318 61.119C6.61083 60.3114 6.5322 59.6635 5.81737 59.1188C5.46881 58.8497 5.18844 58.3016 5.14668 57.8532C4.92747 55.5715 3.83485 53.6292 2.80564 51.6744C1.72073 49.6154 2.15343 47.657 3.21478 45.8562C4.30833 43.9996 5.2714 42.1108 6.15675 40.1439C7.36795 37.4526 9.01161 34.9557 10.426 32.3506C11.6658 30.0623 12.7738 27.7026 14.0604 25.4431C15.8661 22.2722 17.748 19.1434 19.6619 16.0369C20.5404 14.6094 21.5389 13.2527 22.5457 11.9114C23.6508 10.4361 24.7971 8.9775 26.5314 8.16643C26.9587 7.96791 27.4335 7.78331 27.8957 7.76012C31.3598 7.57703 34.8281 7.43908 38.2945 7.27408C43.3275 7.03479 48.3619 6.83454 53.3916 6.52916C56.9049 6.31508 60.4071 5.85769 63.9217 5.68565C69.0541 5.43241 74.1722 4.93872 79.3379 5.19656C83.816 5.42047 88.3199 5.30061 92.8051 5.12602C96.8672 4.97023 100.917 4.51711 104.973 4.22911C105.985 4.15631 107.012 4.16505 108.025 4.2242C109.442 4.30573 110.096 4.88099 110.303 6.26867C110.407 6.96251 110.686 7.46559 111.194 7.93C112.789 9.38902 114.411 10.8222 115.906 12.3791C117.587 14.1325 119.128 16.0181 120.751 17.8291C121.828 19.0332 122.956 20.1914 124.039 21.3928C125.114 22.5849 126.155 23.8055 127.23 24.9976C127.881 25.7166 128.487 26.5148 129.255 27.0797C130.468 27.9715 131.402 29.0889 132.338 30.2304C133.734 31.9332 135.229 33.5591 136.56 35.3102C137.937 37.1202 139.405 38.8169 141.18 40.2563C141.841 40.7929 142.418 41.488 142.859 42.2165C143.167 42.7268 143.209 43.4121 143.319 44.0252C143.394 44.445 143.437 44.8845 143.399 45.3058C143.304 46.3154 143.341 47.3963 142.983 48.3142C142.215 50.2829 141.234 52.168 140.327 54.0831C140.163 54.4243 139.998 54.8133 139.719 55.0419C138.697 55.8729 138.685 56.9758 138.776 58.1279C138.898 59.695 138.918 61.276 139.155 62.8237C139.677 66.2241 139.725 69.6202 139.487 73.0467C139.295 75.8004 139.333 78.5694 139.266 81.3312C139.214 83.4969 139.103 85.6662 139.129 87.8321C139.179 92.0618 139.311 96.2919 139.409 100.521C139.411 100.629 139.415 100.737 139.42 100.848C139.51 102.779 139.143 103.331 137.343 103.99ZM9.10855 47.5888C9.67375 47.6118 10.046 47.6659 10.4097 47.6357C11.7534 47.5164 13.0929 47.3549 14.4337 47.2355C16.6855 47.0331 18.9346 46.8216 21.1876 46.6613C22.7948 46.5467 24.4099 46.5344 26.0196 46.4318C27.3709 46.3488 28.7197 46.1038 30.0641 46.1164C31.3756 46.1307 32.6906 45.6115 33.9969 46.1233C34.0912 46.1601 34.2117 46.144 34.3196 46.1424C37.997 46.0909 41.6725 46.0153 45.349 45.9878C49.7026 45.9548 54.0587 46.0118 58.4138 45.9429C61.546 45.8932 64.6765 45.6636 67.81 45.584C70.1308 45.5254 72.4534 45.5718 74.7771 45.5882C75.8042 45.597 76.8282 45.6806 77.8559 45.6743C80.4955 45.6586 83.1463 45.4395 85.7723 45.6122C90.5732 45.9271 95.3569 45.7797 100.151 45.6056C102.958 45.5038 105.769 45.4741 108.578 45.4263C109.216 45.4162 109.854 45.5081 110.49 45.48C112.323 45.3985 114.153 45.185 115.983 45.1994C118.729 45.218 121.473 45.4974 124.218 45.468C127.937 45.4272 131.652 45.2003 135.367 45.0304C135.589 45.0215 135.799 44.7901 136.238 44.5321C135.667 44.0592 135.185 43.7517 134.815 43.3409C132.789 41.0908 130.607 38.9722 128.977 36.3874C128.51 35.6458 127.912 35.1747 126.963 35.2921C126.536 35.3437 126.094 35.3078 125.66 35.2962C123.599 35.2364 121.534 35.1915 119.474 35.0988C118.879 35.0716 118.342 34.705 118.439 34.0853C118.496 33.7158 118.957 33.2248 119.329 33.123C120.153 32.8926 121.037 32.8776 121.899 32.7656C122.986 32.6239 124.133 32.8564 125.222 32.3519C121.361 27.6885 117.299 23.3318 114.261 18.1531C112.952 18.3038 111.773 18.4988 110.587 18.5675C108.257 18.7008 105.924 18.7769 103.591 18.847C102.955 18.8661 102.341 18.6493 102.244 17.9257C102.139 17.1149 102.698 16.7748 103.413 16.648C104.478 16.4604 105.541 16.2457 106.613 16.1093C108.428 15.8802 110.251 15.7054 112.188 15.4933C111.675 14.7138 111.306 14.0602 110.844 13.4748C109.975 12.366 109.005 11.3371 108.176 10.2001C107.813 9.69958 107.507 9.48028 106.872 9.48745C104.6 9.50911 102.327 9.42276 100.054 9.42634C97.8341 9.42911 95.6109 9.44373 93.3935 9.53655C90.141 9.67126 86.894 9.89316 83.6436 10.0519C80.6691 10.201 77.693 10.3139 74.7161 10.4508C71.412 10.6014 68.1099 10.7791 64.8067 10.9088C61.0175 11.0547 57.2247 11.2184 53.4337 11.2623C49.5289 11.3075 45.6189 11.3316 41.7202 11.1492C37.5525 10.9559 33.39 10.8528 29.2275 11.1214C28.765 11.1506 28.1292 11.4666 27.9071 11.8474C26.6584 13.9854 25.515 16.1848 24.243 18.5288C24.7304 18.5486 24.9864 18.589 25.236 18.5631C26.9084 18.3912 28.5813 18.2073 30.2541 18.0264C31.2169 17.9216 31.6779 18.1502 31.7764 18.8258C31.901 19.6705 31.3226 19.9738 30.6587 20.1687C30.3464 20.2609 30.0232 20.3288 29.7014 20.3607C28.0292 20.5266 26.3543 20.7614 24.678 20.8072C23.4695 20.8391 22.7559 21.3738 22.3007 22.4077C21.9114 23.2944 21.4272 24.1563 21.1592 25.0809C20.1008 28.7319 18.0926 31.9485 16.5196 35.3627C16.014 36.4576 15.3555 37.4832 14.6642 38.7264C15.4105 38.7897 15.9309 38.8829 16.4526 38.8711C18.8361 38.818 21.2186 38.7139 23.6013 38.6818C24.3505 38.6732 25.1358 38.7351 25.8395 38.9616C26.2003 39.0782 26.6455 39.624 26.6461 39.9778C26.6474 40.3167 26.1811 40.8105 25.8127 40.9574C25.2223 41.1883 24.5419 41.2716 23.8979 41.2724C20.6981 41.2893 17.4963 41.2822 14.2963 41.2301C13.5689 41.2186 12.9689 41.3141 12.6972 42.0317C11.9321 44.0635 10.4134 45.6179 9.10855 47.5888ZM9.25715 55.6874C11.0784 55.7614 12.8 55.8524 14.5238 55.8924C15.3886 55.9126 16.2615 55.8821 17.1219 55.7911C19.0591 55.5909 20.9876 55.2345 22.9298 55.1305C28.1772 54.849 33.4268 54.5855 38.6765 54.469C43.4945 54.3619 48.3128 54.4677 53.1325 54.4656C56.4395 54.465 59.7486 54.4855 63.0527 54.4069C67.1064 54.3107 71.1511 54.2891 75.192 54.7321C76.4802 54.8744 77.7922 54.9487 79.0887 54.8874C82.8191 54.7122 86.5421 54.4227 90.273 54.2354C93.2385 54.086 96.2143 54.054 99.18 53.8987C102.086 53.7469 104.985 53.5288 107.885 53.2988C110.256 53.1133 112.621 52.7806 114.995 52.6702C117.69 52.5458 120.394 52.6317 123.092 52.5674C125.308 52.5135 127.524 52.3727 129.739 52.2767C131.143 52.2168 132.549 52.199 133.952 52.0971C134.97 52.0215 135.989 51.871 136.994 51.6839C137.181 51.6496 137.307 51.2799 137.453 51.0729C134.653 51.1991 131.967 51.3328 129.282 51.4366C125.34 51.5913 121.395 51.7308 117.45 51.8734C113.673 52.0108 109.901 51.5997 106.12 51.8479C103.807 51.9998 101.481 51.9712 99.1648 52.054C96.573 52.1466 93.9822 52.3622 91.3911 52.3649C88.4284 52.3705 85.4677 52.1782 82.505 52.1118C80.404 52.0654 78.3013 52.064 76.198 52.0775C72.087 52.1083 67.9733 52.1331 63.8631 52.221C62.0583 52.2586 60.2397 52.6375 58.4571 52.4991C56.8148 52.3694 55.2251 52.4967 53.6061 52.6078C51.9449 52.7233 50.2665 52.6731 48.6008 52.6054C46.0798 52.503 43.5616 52.2597 41.0392 52.1902C37.6851 52.099 34.331 52.0796 30.9753 52.0992C28.3387 52.115 25.7005 52.2447 23.0649 52.3085C19.8956 52.3867 16.7289 52.4739 13.5614 52.5071C11.6946 52.5242 9.82578 52.4423 7.8025 52.4021C8.34044 53.6173 8.79617 54.6433 9.25715 55.6874ZM130.38 72.7876C130.723 67.3535 130.899 62.2395 130.575 57.0901C127.437 57.1905 124.486 57.2835 121.502 57.3781C121.49 57.6655 121.416 57.8664 121.487 57.9712C124.392 62.3589 126.781 67.0465 129.422 71.5883C129.626 71.9385 129.929 72.2296 130.38 72.7876ZM12.4745 60.4926C12.8707 65.2851 12.4478 69.9634 12.8184 74.6469C15.2961 69.6743 18.8346 65.3595 20.9617 60.2407C18.1037 60.3255 15.3746 60.4065 12.4745 60.4926ZM8.93922 99.3038C10.4734 99.2912 10.5394 99.2879 10.5427 98.1696C10.5465 95.1894 10.5563 92.2064 10.4462 89.2276C10.3551 86.7412 9.97009 84.2639 9.93891 81.777C9.88758 77.4932 10.0011 73.2072 10.0606 68.9219C10.0955 66.4317 10.1544 63.9394 10.1982 61.4496C10.2058 60.9671 10.2506 60.4502 9.31844 60.3914C8.97369 73.3543 9.38569 86.27 8.93922 99.3038ZM135.113 84.7035C136.031 75.4129 136.537 66.0935 135.988 56.6234C135.286 56.7358 134.665 56.8365 133.923 56.9563C134.016 58.0574 134.116 59.0749 134.188 60.0943C134.462 63.9824 134.829 67.8682 134.971 71.7628C135.127 76.0718 135.075 80.3903 135.113 84.7035ZM135.661 86.192C135.482 86.1757 135.303 86.1565 135.121 86.1401C135.136 91.4568 135.155 96.7707 135.182 102.088C135.183 102.139 135.352 102.188 135.533 102.291C136.034 101.628 136.118 100.879 136.082 100.071C135.95 97.1088 135.824 94.1443 135.728 91.181C135.673 89.5177 135.68 87.8539 135.661 86.192Z" fill="black"/>
<path d="M9.11059 47.5862C10.4154 45.6154 11.934 44.0641 12.7116 42.0209C12.9862 41.3035 13.5832 41.2078 14.3106 41.2194C17.5104 41.2744 20.7123 41.2786 23.912 41.2617C24.5562 41.2579 25.2364 41.1776 25.8268 40.9467C26.1982 40.7999 26.6615 40.306 26.6602 39.9672C26.6595 39.6134 26.2143 39.0676 25.8536 38.951C25.1469 38.7244 24.3646 38.6626 23.6154 38.6712C21.2328 38.7033 18.8503 38.8074 16.4668 38.8605C15.9451 38.8723 15.4247 38.7792 14.6784 38.7159C15.3698 37.4727 16.0283 36.4471 16.5339 35.3523C18.1098 31.9384 20.1149 28.7249 21.1733 25.0711C21.4414 24.1466 21.9254 23.2878 22.3149 22.3981C22.77 21.3673 23.4865 20.8327 24.6921 20.7977C26.3683 20.7519 28.0433 20.5171 29.7154 20.3512C30.0372 20.3193 30.3634 20.2516 30.6727 20.1592C31.3366 19.9643 31.915 19.661 31.7904 18.8165C31.689 18.1378 31.2309 17.9123 30.2681 18.0171C28.5954 18.198 26.9225 18.3819 25.2501 18.5538C25.0005 18.5796 24.7415 18.5391 24.2571 18.5194C25.5291 16.1756 26.6724 13.9764 27.9211 11.8384C28.1431 11.4607 28.7759 11.1446 29.2415 11.1125C33.404 10.8439 37.5663 10.947 41.7341 11.1403C45.6326 11.3227 49.5427 11.2956 53.4474 11.2534C57.2383 11.2095 61.031 11.0458 64.8201 10.8999C68.1231 10.7732 71.4253 10.5926 74.7293 10.442C77.7063 10.3051 80.6823 10.1921 83.6567 10.0431C86.9072 9.88133 90.1541 9.66245 93.4065 9.52774C95.6238 9.43492 97.847 9.4203 100.067 9.41753C102.34 9.41396 104.61 9.50018 106.885 9.47864C107.52 9.47147 107.826 9.69076 108.189 10.1912C109.014 11.3281 109.985 12.3599 110.857 13.4657C111.315 14.051 111.687 14.7047 112.201 15.4841C110.263 15.6962 108.441 15.8711 106.626 16.1001C105.554 16.2365 104.491 16.4511 103.426 16.6387C102.711 16.7626 102.149 17.1055 102.257 17.9164C102.35 18.6398 102.965 18.8566 103.603 18.8376C105.937 18.7675 108.27 18.6914 110.6 18.5582C111.786 18.4894 112.965 18.2945 114.274 18.1438C117.312 23.3221 121.377 27.6787 125.235 32.3418C124.142 32.843 122.998 32.6137 121.911 32.7554C121.053 32.8675 120.169 32.8825 119.342 33.1127C118.969 33.2175 118.512 33.7057 118.452 34.075C118.355 34.6947 118.891 35.0613 119.486 35.0884C121.546 35.1811 123.611 35.226 125.673 35.2858C126.107 35.2974 126.548 35.3334 126.976 35.2818C127.924 35.1644 128.525 35.6355 128.989 36.3769C130.616 38.9615 132.801 41.08 134.828 43.3301C135.197 43.7409 135.679 44.0483 136.25 44.5212C135.811 44.7792 135.601 45.0105 135.379 45.0195C131.664 45.1894 127.947 45.4161 124.231 45.457C121.489 45.4895 118.741 45.21 115.995 45.1884C114.166 45.1741 112.333 45.3874 110.503 45.469C109.866 45.4971 109.226 45.4051 108.591 45.4153C105.782 45.4631 102.971 45.4928 100.163 45.5946C95.3698 45.7687 90.5861 45.9191 85.7854 45.6012C83.1595 45.4285 80.5087 45.6476 77.8692 45.6633C76.8445 45.6697 75.8176 45.583 74.7904 45.5772C72.4697 45.5609 70.1441 45.5144 67.8233 45.573C64.69 45.6526 61.5595 45.8822 58.4273 45.9319C54.0723 46.0008 49.7162 45.9468 45.3627 45.9768C41.6863 46.0043 38.0109 46.0799 34.3335 46.1314C34.2256 46.133 34.105 46.1521 34.0108 46.1123C32.7016 45.6003 31.3867 46.1166 30.0782 46.1054C28.7308 46.0926 27.382 46.3347 26.0336 46.4208C24.4241 46.5203 22.809 46.5357 21.2018 46.6503C18.9488 46.8106 16.6967 47.0219 14.448 47.2244C13.1041 47.3467 11.7648 47.5051 10.424 47.6246C10.048 47.6633 9.6728 47.609 9.11059 47.5862ZM37.6106 41.0207C37.6115 40.9967 37.6125 40.9728 37.6165 40.9489C37.8856 40.9599 38.1568 40.9949 38.427 40.9789C39.8837 40.8821 41.3428 40.7975 42.7951 40.6616C43.634 40.5818 44.191 40.0677 44.0907 39.512C43.9562 38.763 43.4521 38.4157 42.6999 38.4241C42.3223 38.4298 41.9414 38.4413 41.5659 38.468C39.7877 38.5906 38.0123 38.7164 36.2364 38.8571C35.9178 38.8831 35.5545 38.9044 35.3053 39.0681C35.0221 39.2545 34.6324 39.6344 34.6708 39.8699C34.7258 40.2109 35.0689 40.6895 35.38 40.7741C36.0913 40.9619 36.8617 40.9483 37.6106 41.0207ZM107.208 33.6782C105.314 33.7241 103.428 33.7675 101.544 33.8229C101.113 33.8353 100.679 33.8956 100.249 33.9411C99.6921 33.9995 99.2426 34.299 99.3547 34.8612C99.4143 35.1635 99.9026 35.6061 100.193 35.6029C102.303 35.5836 104.414 35.5135 106.518 35.3561C107.26 35.2963 107.667 34.7732 107.208 33.6782ZM93.4341 26.7595C94.0789 26.7407 94.5132 26.7403 94.9458 26.7099C95.3784 26.6795 95.8702 26.7385 96.2225 26.5459C96.6024 26.3365 97.0235 25.9219 97.1083 25.5296C97.2374 24.9292 96.639 24.7639 96.1555 24.6484C95.9478 24.5979 95.7218 24.5588 95.5111 24.5832C94.4335 24.7133 93.3533 24.8343 92.2909 25.031C92.0404 25.0778 91.6865 25.3872 91.6564 25.6109C91.6254 25.8585 91.851 26.2814 92.0744 26.3864C92.5536 26.6098 93.105 26.6771 93.4341 26.7595ZM36.0871 29.2209C36.7848 29.597 37.223 30.0195 37.6776 30.035C38.5151 30.066 39.3669 29.8908 40.1973 29.7266C40.3603 29.6943 40.5737 29.3072 40.5547 29.1085C40.5333 28.8978 40.2713 28.5633 40.0864 28.5438C39.0841 28.4401 38.0711 28.381 37.0609 28.3999C36.827 28.4054 36.6025 28.7711 36.0871 29.2209Z" fill="white"/>
<path d="M9.25914 55.6867C8.79805 54.6458 8.34246 53.6172 7.80729 52.4085C9.8305 52.4487 11.6993 52.5306 13.5661 52.5135C16.7334 52.4832 19.9031 52.3932 23.0693 52.3149C25.7078 52.2512 28.3429 52.1215 30.9795 52.1057C34.335 52.0861 37.689 52.1054 41.0431 52.1967C43.5654 52.2661 46.0836 52.5093 48.6045 52.6117C50.2702 52.6793 51.9485 52.7295 53.6096 52.6141C55.2286 52.503 56.8183 52.3758 58.4605 52.5054C60.243 52.6467 62.0616 52.265 63.8663 52.2274C67.9765 52.1396 72.0902 52.1118 76.2009 52.0839C78.3043 52.0674 80.4068 52.0719 82.5077 52.1183C85.4704 52.1846 88.4311 52.3738 91.3936 52.3713C93.9847 52.3686 96.5754 52.1531 99.1671 52.0605C101.486 51.9778 103.809 52.0063 106.122 51.8544C109.903 51.6033 113.675 52.0143 117.452 51.8799C121.397 51.7374 125.338 51.5977 129.283 51.4432C131.968 51.3365 134.651 51.2057 137.454 51.0797C137.308 51.2866 137.182 51.6562 136.995 51.6905C135.99 51.8775 134.974 52.0311 133.953 52.1035C132.553 52.2055 131.145 52.2232 129.74 52.2831C127.526 52.379 125.31 52.5198 123.094 52.5737C120.396 52.6379 117.691 52.5551 114.996 52.6764C112.623 52.7839 110.258 53.1164 107.887 53.3049C104.987 53.5348 102.085 53.7527 99.1823 53.9045C96.2166 54.0599 93.244 54.092 90.2755 54.2412C86.5476 54.4315 82.8218 54.7178 79.0915 54.893C77.7981 54.9544 76.4861 54.8801 75.1949 54.7377C71.1541 54.2949 67.1096 54.3164 63.056 54.4126C59.749 54.4911 56.4431 54.4677 53.1361 54.4713C48.3165 54.4734 43.4952 54.3705 38.6804 54.4747C33.4279 54.591 28.1784 54.8544 22.9342 55.136C20.992 55.24 19.0635 55.5963 17.1264 55.7964C16.2662 55.8843 15.3933 55.9148 14.5284 55.8977C12.8019 55.8515 11.0803 55.7606 9.25914 55.6867Z" fill="white"/>
<path d="M130.378 72.7861C129.924 72.225 129.622 71.9368 129.42 71.5868C126.779 67.0448 124.386 62.3599 121.485 57.9692C121.414 57.8644 121.488 57.6635 121.5 57.3762C124.484 57.2815 127.435 57.1885 130.573 57.0881C130.898 62.2407 130.724 67.355 130.378 72.7861Z" fill="white"/>
<path d="M12.4753 60.4954C15.3755 60.4094 18.1047 60.3283 20.963 60.2406C18.8357 65.3595 15.297 69.6774 12.8193 74.6472C12.4484 69.9695 12.8744 65.2912 12.4753 60.4954Z" fill="white"/>
<path d="M8.93961 99.309C9.38325 86.2744 8.97397 73.3611 9.31885 60.3975C10.2485 60.4532 10.2066 60.9703 10.1989 61.4557C10.1551 63.9457 10.0962 66.4381 10.0613 68.9285C10.0047 73.2141 9.88818 77.5002 9.93954 81.7842C9.97085 84.2683 10.3559 86.7487 10.447 89.2352C10.5572 92.2142 10.5503 95.1975 10.5436 98.1777C10.5435 99.2902 10.4774 99.2935 8.93961 99.309Z" fill="white"/>
<path d="M135.11 84.7025C135.072 80.389 135.124 76.0702 134.969 71.7611C134.827 67.8662 134.46 63.9802 134.186 60.092C134.113 59.0725 134.016 58.0551 133.92 56.9537C134.659 56.8338 135.283 56.7332 135.986 56.6208C136.535 66.0915 136.029 75.4113 135.11 84.7025Z" fill="white"/>
<path d="M135.657 86.1911C135.677 87.8531 135.673 89.5171 135.725 91.1775C135.821 94.1409 135.947 97.1056 136.079 100.067C136.115 100.876 136.03 101.625 135.53 102.288C135.348 102.188 135.18 102.136 135.179 102.085C135.151 96.7704 135.133 91.4533 135.117 86.1362C135.296 86.1585 135.475 86.1748 135.657 86.1911Z" fill="white"/>
<path d="M37.6105 41.0234C36.8615 40.954 36.0942 40.9648 35.3771 40.7737C35.0659 40.6921 34.7228 40.2135 34.6678 39.8695C34.6294 39.634 35.0192 39.2541 35.3023 39.0678C35.5516 38.904 35.915 38.8798 36.2334 38.8567C38.0094 38.716 39.7876 38.5934 41.563 38.4676C41.9414 38.441 42.3193 38.4294 42.697 38.4237C43.4492 38.4153 43.9534 38.7596 44.0877 39.5116C44.1881 40.0673 43.6311 40.5814 42.7922 40.6612C41.3399 40.7971 39.8806 40.8847 38.4241 40.9785C38.1567 40.9976 37.8857 40.9596 37.6135 40.9485C37.6124 40.9755 37.6115 40.9994 37.6105 41.0234Z" fill="black"/>
<path d="M107.208 33.6777C107.667 34.7727 107.259 35.2988 106.517 35.3526C104.414 35.51 102.302 35.5801 100.193 35.5993C99.9023 35.6025 99.4139 35.16 99.3543 34.8577C99.2421 34.2985 99.6887 33.9958 100.248 33.9376C100.678 33.8921 101.112 33.8348 101.544 33.8194C103.43 33.7671 105.316 33.7238 107.208 33.6777Z" fill="black"/>
<path d="M93.4342 26.7583C93.105 26.676 92.5535 26.6116 92.0743 26.3883C91.8479 26.2831 91.6225 25.8572 91.6564 25.6127C91.6834 25.389 92.0374 25.0795 92.2909 25.0329C93.3562 24.8363 94.4366 24.7123 95.511 24.585C95.7217 24.5606 95.9448 24.5996 96.1554 24.6502C96.6389 24.7688 97.2374 24.931 97.1082 25.5314C97.0235 25.9237 96.6022 26.3414 96.2224 26.5478C95.8731 26.7405 95.3783 26.6814 94.9457 26.7118C94.5133 26.7392 94.079 26.7396 93.4342 26.7583Z" fill="black"/>
<path d="M36.0878 29.2225C36.6032 28.7727 36.8307 28.4072 37.0616 28.4016C38.0688 28.3825 39.0817 28.4446 40.0871 28.5455C40.272 28.565 40.5311 28.8993 40.5555 29.1102C40.5774 29.3089 40.364 29.696 40.198 29.7283C39.3676 29.8924 38.5158 30.0677 37.6784 30.0367C37.2237 30.0212 36.7855 29.5986 36.0878 29.2225Z" fill="black"/>
</svg>
