      <svg width="1390" height="555" viewBox="0 0 1390 555" fill="none" xmlns="http://www.w3.org/2000/svg">
         <path
            d="M1060.35 43.5701C1064.86 49.7201 1070.78 49.8401 1077.37 48.0401C1084.87 45.9901 1092.37 43.7501 1100.02 42.5201C1106.9 41.4101 1111.22 37.3001 1115.62 32.6301C1114.07 29.0501 1112.47 25.8701 1109.25 23.8901C1105.74 21.7301 1105.18 18.2501 1105.95 14.8501C1106.73 11.4101 1109.21 8.83006 1112.85 7.91006C1114.77 7.43006 1116.77 7.09006 1118.74 7.01006C1127.18 6.66006 1135.63 6.18006 1144.08 6.22006C1152.93 6.27006 1161.79 6.74006 1170.63 7.28006C1174.41 7.51006 1178.19 8.18006 1181.89 9.02006C1188.13 10.4501 1190.44 13.8701 1189.97 20.3301C1189.91 21.2201 1189.96 22.1101 1189.96 23.6101C1187.24 24.7901 1184.5 25.9301 1181.81 27.1901C1181.03 27.5601 1180.2 28.1301 1179.76 28.8401C1177.66 32.1801 1175.26 35.4201 1173.76 39.0301C1172.12 43.0001 1171.31 47.3301 1170.24 51.5301C1170.03 52.3401 1170.31 53.2801 1170.38 54.5701C1179.63 56.9601 1188.34 56.5701 1197.01 51.9801C1205.36 47.5601 1210.88 41.1001 1214.41 31.7101C1211.85 30.6401 1209.38 29.7001 1206.99 28.6001C1203.6 27.0401 1201.59 24.4701 1201.59 20.5801C1201.59 17.2401 1203.32 14.6001 1207.06 13.3701C1210.12 12.3701 1213.4 11.3201 1216.55 11.4201C1229.26 11.7901 1241.87 10.6401 1254.51 9.72006C1261.52 9.21006 1268.54 8.67006 1275.55 8.73006C1278.02 8.75006 1280.87 10.0301 1282.87 11.6001C1286.54 14.4901 1286.52 20.2301 1283.08 23.4001C1278.6 27.5201 1275.27 32.1901 1273.68 38.1901C1272.62 42.1901 1270.82 45.9801 1269.43 49.9001C1269.15 50.7001 1269.21 51.6201 1269.07 52.8601C1270.67 53.2301 1272.04 53.8601 1273.37 53.7901C1279.66 53.4901 1285.87 53.1401 1291.97 50.9501C1299.18 48.3601 1301.94 43.1201 1302.59 36.1701C1302.97 32.0801 1301.73 28.4801 1299.27 25.0901C1296.25 20.9201 1296.42 17.0201 1299.62 13.1801C1300.67 11.9201 1302.38 10.8601 1303.98 10.4901C1306.76 9.85006 1309.68 9.78006 1312.55 9.55006C1323.55 8.65006 1334.53 7.53006 1345.55 7.04006C1349.89 6.85006 1354.19 9.10006 1358.73 7.77006C1362.87 6.56006 1367.04 5.25006 1371.28 4.65006C1376.16 3.97006 1380.81 4.98006 1383.49 9.79006C1384.33 11.3001 1384.95 13.1201 1385.04 14.8301C1385.21 18.0801 1384.97 21.3501 1384.84 24.6101C1384.47 34.3301 1383.7 44.0501 1383.8 53.7701C1383.89 62.7301 1385 71.6801 1385.46 80.6401C1385.61 83.5001 1384.9 86.4001 1384.94 89.2801C1385.05 97.19 1385.34 105.1 1385.56 113.01C1385.79 121.6 1386.01 130.18 1386.25 138.77C1386.27 139.31 1386.41 139.85 1386.56 140.37C1388.28 146.74 1386.75 153.09 1386.55 159.45C1386.39 164.5 1386.93 169.56 1386.9 174.62C1386.88 178.38 1385.55 182.36 1386.41 185.84C1387.45 190.04 1386.18 193.94 1386.48 197.98C1386.98 204.81 1386.58 211.7 1386.77 218.55C1386.99 226.38 1387.56 234.21 1387.74 242.04C1387.83 245.99 1387.15 249.95 1387.28 253.9C1387.5 260.65 1388.2 267.38 1388.49 274.13C1388.78 280.96 1388.67 287.81 1389.02 294.64C1389.49 304.08 1387.4 313.32 1387.08 322.64C1386.86 329 1385.26 335.37 1386.91 341.93C1387.78 345.37 1386.29 349.34 1386.29 353.07C1386.29 366.37 1386 379.65 1387.03 392.95C1387.66 400.98 1387.04 409.1 1387.2 417.18C1387.25 419.66 1387.95 422.13 1388.43 424.59C1389.61 430.59 1388.31 436.34 1387.26 442.22C1386.52 446.36 1387.02 450.73 1387.12 454.99C1387.28 461.67 1388.09 468.37 1387.68 475C1387.13 484 1387.48 492.89 1388.21 501.86C1388.75 508.45 1387.65 515.18 1388.23 521.76C1388.77 527.91 1387.12 533.61 1386.22 539.47C1385.84 541.94 1384.77 544.27 1382.88 546.51C1380.24 549.64 1377.79 550.14 1373.99 549.92C1367.17 549.53 1360.31 550.02 1353.46 550.17C1349.7 550.25 1345.94 550.34 1342.18 550.48C1336.05 550.71 1329.92 551.23 1323.79 551.21C1312.43 551.17 1301.21 553.62 1289.77 552.71C1284.05 552.25 1278.23 553.08 1272.46 553.22C1268.88 553.31 1265.29 553.29 1261.71 553.17C1246.35 552.69 1231.01 552.94 1215.66 553.67C1209.05 553.99 1202.4 553.52 1195.77 553.67C1187.48 553.85 1179.19 554.49 1170.9 554.58C1160.63 554.68 1150.35 554.57 1140.08 554.27C1126.92 553.89 1113.77 552.99 1100.61 552.76C1083.16 552.46 1065.71 552.71 1048.26 552.48C1040.13 552.37 1032.01 551.47 1023.89 551.36C1015.82 551.25 1007.75 551.7 999.676 551.83C997.006 551.87 994.336 551.62 991.666 551.61C979.396 551.56 967.126 551.45 954.856 551.56C946.366 551.64 937.886 552.3 929.396 552.26C918.916 552.21 908.436 551.46 897.956 551.5C890.426 551.53 882.976 550.83 875.496 550.37C872.996 550.22 870.466 550.67 867.946 550.73C865.316 550.79 862.656 550.98 860.066 550.67C848.916 549.31 837.826 550.83 826.726 551.19C816.986 551.51 807.256 552.42 797.506 552.58C790.686 552.69 783.866 551.91 777.036 551.66C775.326 551.6 773.606 552.06 771.886 552.27C771.196 552.36 770.496 552.52 769.806 552.47C763.006 552.05 756.216 551.41 749.406 551.19C743.846 551.01 738.266 551.31 732.696 551.41C718.256 551.66 703.816 551.94 689.366 552.15C683.416 552.24 677.406 552.76 671.546 552.04C666.536 551.42 661.556 551.4 656.556 551.13C650.306 550.78 644.076 550.01 637.826 549.91C629.916 549.78 621.996 550.24 614.076 550.24C608.316 550.24 602.566 549.82 596.806 549.78C589.456 549.72 582.106 549.92 574.756 549.87C571.346 549.85 567.936 549.36 564.526 549.35C548.746 549.28 532.956 549.15 517.176 549.36C510.176 549.45 503.196 550.44 496.196 550.74C491.136 550.96 486.066 550.71 480.996 550.66C470.386 550.56 459.776 550.39 449.166 550.39C440.926 550.39 432.686 550.74 424.446 550.66C417.296 550.59 410.136 549.65 403.016 549.98C392.806 550.46 382.646 549.54 372.466 549.67C362.376 549.8 352.276 549.71 342.186 550.04C333.936 550.31 325.716 551.2 317.466 551.57C313.186 551.76 308.886 551.28 304.596 551.35C298.686 551.45 292.776 551.86 286.866 552.01C277.706 552.24 268.446 553.2 259.396 552.28C249.716 551.29 240.136 553.36 230.716 552.36C223.886 551.63 217.016 554.34 210.386 551.52C198.776 552.76 187.196 550.56 175.556 551.31C163.996 552.05 152.386 552.2 140.786 552.36C135.026 552.44 129.256 551.94 123.486 551.79C121.156 551.73 118.816 551.88 116.486 551.94C111.996 552.06 107.576 551.69 103.096 551.26C97.8163 550.75 92.3762 551.92 86.9962 552.31C85.2262 552.44 83.4062 552.66 81.6762 552.4C71.4362 550.89 61.1862 551.87 50.9263 551.87C44.0963 551.87 37.2663 550.91 30.4263 550.39C28.7963 550.27 27.1462 549.94 25.5462 550.12C18.6562 550.88 12.2162 549.49 5.75625 546.05C1.68625 537.04 2.07625 527.01 1.66625 517.11C1.34625 509.36 1.02625 501.61 0.776249 493.86C0.436249 483.26 -0.703751 472.71 0.636249 462.06C1.37625 456.18 0.926249 450.14 1.03625 444.18C1.06625 442.38 1.14625 440.58 1.22625 438.78C1.42625 434.11 1.86625 429.43 1.77625 424.76C1.54625 412.84 1.64625 400.95 2.40625 389.04C2.88625 381.51 2.59625 373.93 2.67625 366.37C2.82625 352.46 2.80625 338.55 3.22625 324.66C3.58625 312.62 4.70625 300.6 4.99625 288.56C5.23625 278.81 4.76625 269.04 4.57625 259.28C4.42625 251.77 4.29625 244.26 4.01625 236.76C3.85625 232.62 3.19625 228.49 3.12625 224.35C2.81625 203.76 2.70625 183.17 4.06625 162.59C4.81625 151.1 4.90625 139.57 5.27625 128.06C5.58625 118.67 6.19625 109.27 6.08625 99.8801C5.96625 89.58 5.05625 79.2901 4.74625 68.9801C4.56625 63.0201 4.67625 57.0201 5.06625 51.0701C5.87625 38.7901 6.90625 26.5301 7.96625 14.2701C8.14625 12.1301 8.82625 10.0201 9.37625 7.92006C10.1062 5.00006 11.7962 3.30006 15.1162 3.26006C19.4462 3.21006 23.7862 2.92006 28.1062 2.54006C31.8762 2.21006 35.6263 1.63006 39.3862 1.17006C41.7262 0.890057 44.0662 0.420057 46.4062 0.400057C55.9863 0.290057 65.5762 0.330057 75.1562 0.280057C79.8363 0.260057 84.5663 -0.319943 89.1663 0.250057C92.4362 0.650057 95.8063 2.08006 98.6263 3.87006C103.636 7.05006 103.086 13.3901 98.3463 16.9901C92.1763 21.6801 86.0062 26.4801 80.4962 31.9101C76.8662 35.4901 75.7763 40.7201 75.5263 45.9001C75.4062 48.4001 75.3063 50.9001 75.0163 53.3901C74.4463 58.4001 75.8063 61.1901 80.4563 63.4601C84.4963 65.4301 88.6462 67.08 93.3562 66.5201C94.9462 66.33 96.6062 66.7501 98.2162 66.6501C100.526 66.5101 103.176 66.8 105.066 65.7701C112.406 61.78 120.396 58.8301 126.066 52.0801C128.406 49.2901 129.916 46.2901 130.516 42.9701C131.286 38.7201 131.356 34.3501 131.626 30.0201C131.876 26.0501 130.966 22.4701 127.816 19.7101C125.186 17.4201 124.706 14.2301 125.596 11.2701C126.546 8.11006 129.426 6.52006 132.706 6.14006C141.506 5.12006 150.296 3.87006 159.126 3.32006C165.746 2.91006 172.416 3.56006 179.066 3.51006C182.836 3.48006 186.606 3.09006 190.356 2.67006C193.946 2.27006 197.496 1.49006 201.076 1.10006C205.286 0.640057 210.876 3.95006 212.196 7.47006C213.446 10.8101 212.226 14.9301 208.086 17.8001C202.746 21.5101 198.266 25.7401 195.986 31.9301C195.006 34.6001 193.766 37.3301 193.566 40.1001C193.196 45.1201 193.416 50.2001 193.586 55.2401C193.706 58.7801 195.876 60.8701 198.666 63.0401C207.126 69.6001 215.026 67.5101 223.126 62.5501C229.766 58.4801 236.666 54.8301 243.176 50.5901C247.076 48.0501 250.606 44.8701 253.986 41.6501C255.166 40.5301 255.786 38.4601 255.996 36.7401C256.346 33.8801 256.026 30.9401 256.216 28.0501C256.436 24.8401 254.856 23.3501 251.926 22.8901C250.496 22.6601 249.066 22.4701 247.636 22.2601C241.766 21.4301 237.516 17.3401 237.666 12.6501C237.806 8.30006 242.896 3.96006 248.356 3.64006C251.426 3.46006 254.506 3.34006 257.586 3.32006C264.046 3.28006 270.506 3.36006 276.956 3.30006C279.286 3.28006 281.626 3.11006 283.946 2.86006C293.886 1.79006 303.796 2.51006 313.716 3.24006C320.706 3.75006 327.706 3.97006 334.706 4.32006C338.566 4.51006 343.366 8.32006 344.346 11.9701C345.566 16.5001 343.956 20.5001 339.456 22.7401C332.426 26.2401 329.726 32.5101 327.876 39.5201C326.786 43.6401 325.446 47.7101 326.156 52.0401C326.676 55.2201 326.936 58.5401 328.066 61.5101C329.156 64.3901 331.896 66.1101 335.076 65.4601C340.016 64.4501 344.996 63.3201 349.696 61.5501C354.926 59.5801 359.966 57.0201 364.896 54.3701C369.126 52.0901 373.256 49.5401 377.066 46.6501C378.376 45.6501 378.966 43.2901 379.256 41.4501C379.656 38.9701 379.456 36.3901 379.496 33.8501C379.546 30.6501 378.456 28.0001 376.436 25.3901C370.986 18.3701 373.486 12.1001 382.176 10.3601C383.766 10.0401 385.376 9.51006 386.966 9.52006C400.186 9.60006 413.256 7.85006 426.376 6.55006C436.436 5.55006 446.516 4.62006 456.606 3.90006C461.066 3.58006 465.626 3.45006 470.056 3.96006C476.266 4.69006 480.626 8.13006 481.076 13.3301C481.476 18.0001 478.986 20.6901 475.936 23.3701C472.986 25.9601 469.476 27.6701 466.976 31.0801C464.316 34.7201 463.616 38.5401 463.266 42.6301C463.036 45.2601 463.376 47.9301 463.306 50.5801C463.156 56.5601 467.716 58.0001 472.006 59.1601C484.596 62.5901 495.806 58.4001 506.576 52.2901C507.196 51.9401 507.876 51.5001 508.246 50.9301C509.616 48.8101 511.736 46.7001 511.976 44.4201C512.566 38.7101 518.136 33.9701 515.036 27.5501C514.036 25.4801 513.746 23.0201 513.366 20.6901C512.506 15.4601 514.736 11.3201 519.746 9.56006C522.576 8.57006 525.686 7.90006 528.676 7.88006C538.376 7.83006 548.176 7.40006 557.766 8.57006C564.116 9.35006 570.246 8.80006 576.486 8.81006C579.316 8.81006 582.146 9.50006 584.976 9.58006C587.446 9.65006 589.946 9.42006 592.406 9.12006C597.656 8.48006 601.936 10.3101 603.986 14.2201C606.966 19.9001 605.006 25.5501 598.786 27.0501C592.486 28.5601 589.266 32.6201 587.406 38.1601C583.036 51.2101 591.366 61.2701 602.496 61.7801C606.466 61.9601 610.656 60.3701 614.536 59.0001C619.416 57.2801 624.006 54.7301 628.866 52.9601C636.546 50.1501 639.006 44.3901 638.666 36.8601C638.566 34.7001 638.206 32.5601 638.026 30.4101C637.776 27.5301 636.706 25.2701 633.976 23.8301C632.756 23.1801 631.576 22.0901 630.876 20.9001C627.546 15.2301 628.266 8.66006 637.516 7.12006C640.796 6.58006 644.286 7.37006 647.666 7.28006C653.816 7.11006 659.956 6.58006 666.106 6.49006C672.566 6.40006 679.036 6.71006 685.506 6.72006C693.726 6.74006 701.946 6.46006 710.156 6.62006C717.906 6.78006 725.716 5.75006 733.386 8.06006C738.416 9.57006 741.876 14.0501 740.686 19.0201C740.126 21.3501 738.446 23.4101 737.286 25.5901C735.016 29.8701 732.416 34.0201 730.576 38.4801C728.206 44.2401 731.736 50.0601 737.746 51.9001C743.056 53.5201 748.066 53.1401 753.086 51.0001C757.586 49.0801 762.146 47.3001 766.646 45.3901C772.146 43.0501 776.046 38.8401 779.236 33.9901C781.276 30.9001 780.666 26.8701 778.086 23.8701C777.266 22.9101 776.246 22.1201 775.286 21.2901C772.036 18.4701 771.336 15.0101 772.776 11.0801C774.266 7.01006 777.666 5.27006 781.606 4.95006C791.296 4.15006 801.006 3.13006 810.696 3.25006C817.416 3.33006 824.046 3.25006 830.676 2.28006C832.826 1.96006 834.936 1.42006 837.066 1.04006C841.476 0.250057 845.266 1.39006 848.636 4.43006C849.566 5.27006 851.196 5.70006 852.486 5.68006C854.806 5.64006 857.116 5.02006 859.446 4.79006C865.086 4.23006 868.846 9.36006 866.666 14.6301C866.406 15.2601 865.966 15.9001 865.436 16.3301C857.856 22.4501 853.286 30.6101 850.366 39.6401C849.106 43.5301 848.406 47.9501 848.906 51.9601C849.256 54.8301 851.436 58.1801 853.816 59.9501C858.766 63.6301 864.996 64.6601 870.886 63.2801C875.866 62.1101 880.516 59.4301 885.186 57.1501C892.336 53.6701 895.716 47.5001 896.486 39.8601C896.696 37.8001 896.526 35.4401 895.696 33.6001C893.466 28.7001 892.266 23.3701 888.606 19.0001C886.726 16.7501 886.596 13.2701 888.546 10.2801C890.356 7.49006 892.856 6.51006 895.966 7.16006C902.316 8.48006 908.546 7.37006 914.876 6.89006C923.816 6.22006 932.836 6.58006 941.826 6.42006C946.156 6.35006 950.526 5.69006 954.806 6.07006C958.706 6.42006 962.716 7.33006 966.296 8.88006C970.826 10.8301 972.256 16.3601 969.876 20.9001C968.546 23.4401 966.906 25.8401 965.236 28.1801C959.736 35.8901 957.066 44.6301 955.856 53.8601C955.316 58.0401 956.716 59.2901 961.016 59.3101C968.246 59.3301 974.676 56.9401 980.726 53.1301C983.786 51.2001 985.756 48.5201 986.986 45.2801C988.516 41.2401 989.926 37.1501 991.156 33.0101C992.276 29.2201 991.606 25.8801 988.026 23.5201C984.476 21.1801 983.036 17.7201 984.066 13.7101C985.136 9.56006 988.446 7.54006 992.566 7.22006C996.886 6.89006 1001.25 7.02006 1005.58 6.80006C1015.88 6.27006 1026.17 5.61006 1036.46 5.08006C1040.26 4.88006 1044.07 4.73006 1047.87 4.87006C1055.3 5.15006 1062.65 4.94006 1069.98 3.48006C1075.08 2.46006 1078.68 4.66006 1080.68 9.55006C1082.34 13.6001 1080.89 17.0101 1076.37 20.0301C1073.37 22.0401 1070.36 24.0501 1067.52 26.2701C1062.09 30.5301 1060.86 36.7301 1060.35 43.5701ZM18.6062 531.99C20.9962 531.8 22.7563 531.68 24.5063 531.51C30.7863 530.92 37.0662 530.25 43.3563 529.74C46.9362 529.45 50.5363 529.5 54.1263 529.28C58.1763 529.03 62.2062 528.48 66.2663 528.35C76.0163 528.03 85.7762 527.8 95.5362 527.69C106.336 527.56 117.136 527.51 127.936 527.63C132.436 527.68 137.136 529.29 141.376 528.42C153.646 525.91 165.986 528.12 178.226 526.99C181.046 526.73 183.896 526.37 186.706 526.55C196.816 527.2 206.906 528.34 217.026 528.75C224.756 529.06 232.526 528.32 240.266 528.48C246.546 528.61 252.796 527.78 259.156 529C264.766 530.07 270.666 529.91 276.426 529.78C285.556 529.58 294.676 528.95 303.796 528.49C312.046 528.08 320.286 527.59 328.536 527.25C338.506 526.84 348.476 526.35 358.446 526.25C366.346 526.17 374.256 526.66 382.166 526.77C384.116 526.8 386.076 526.29 388.036 526.07C389.076 525.95 390.136 525.85 391.176 525.86C394.076 525.89 396.966 525.98 399.856 526.05C407.086 526.23 414.316 526.53 421.546 526.53C425.676 526.53 429.806 526.04 433.946 525.74C434.636 525.69 435.316 525.38 435.996 525.39C441.876 525.43 447.756 525.54 453.636 525.58C462.096 525.64 470.556 525.69 479.026 525.69C483.346 525.69 487.666 525.7 491.976 525.48C501.086 525.01 510.186 524.2 519.306 523.89C529.406 523.55 539.516 523.6 549.616 523.5C550.516 523.49 551.406 523.67 552.306 523.72C558.516 524.06 564.716 524.65 570.926 524.67C579.466 524.71 588.016 524.27 596.556 524.14C601.536 524.06 606.516 524.08 611.496 524.24C617.406 524.43 623.536 525.91 629.166 524.81C635.856 523.5 642.146 524.94 648.606 525.03C653.106 525.1 657.606 525.84 662.106 525.9C668.526 525.98 674.946 525.64 681.366 525.62C691.716 525.6 702.056 525.73 712.406 525.74C720.306 525.75 728.216 525.7 736.116 525.61C743.656 525.52 751.206 525.58 758.726 525.11C763.526 524.81 768.376 527.07 773.086 524.74C777.296 527.02 781.736 525.14 785.996 525.15C798.286 525.16 810.616 526.85 822.906 524.49C827.736 523.56 832.816 524.06 837.696 523.33C843.926 522.4 848.136 522.62 853.876 525.03C854.846 525.44 855.996 525.47 857.066 525.53C864.276 525.98 871.486 526.5 878.706 526.79C883.536 526.99 888.376 526.78 893.206 526.87C900.036 527.01 906.876 527.61 913.686 527.38C928.506 526.89 943.156 528.92 957.866 529.93C965.986 530.49 974.106 531.23 982.236 531.53C989.586 531.8 996.946 531.44 1004.3 531.62C1010.39 531.77 1016.47 532.55 1022.55 532.62C1030.14 532.7 1037.73 532.4 1045.32 532.13C1048.71 532.01 1052.09 531.31 1055.48 531.3C1064.17 531.27 1072.86 531.53 1081.56 531.57C1089.69 531.6 1097.83 531.26 1105.95 531.49C1119.13 531.87 1132.3 532.8 1145.49 533.09C1156.62 533.34 1167.75 532.99 1178.89 532.94C1179.79 532.94 1180.69 533.19 1181.59 533.2C1188.99 533.35 1196.4 533.73 1203.79 533.57C1219.67 533.23 1235.55 532.54 1251.43 532.13C1262.8 531.83 1274.18 531.83 1285.55 531.53C1296.4 531.24 1307.23 530.56 1318.08 530.38C1324.73 530.27 1331.45 530.27 1338.01 531.14C1345.42 532.13 1352.78 531.17 1360.15 531.58C1363.39 531.76 1364.39 530.26 1364.47 526.66C1364.62 520.15 1364.78 513.63 1364.64 507.12C1364.51 500.88 1363.77 494.66 1363.78 488.42C1363.79 484.24 1364.73 480.06 1365.07 475.87C1365.56 469.97 1365.71 464.04 1366.31 458.16C1367.17 449.73 1368.58 441.33 1365.18 433.1C1364.85 432.3 1365 431.31 1364.95 430.4C1364.62 424.44 1364.43 418.46 1363.93 412.51C1363.63 408.92 1361.82 405.16 1362.52 401.86C1363.87 395.48 1362.73 389.23 1362.95 382.94C1363.22 375.39 1363.16 367.83 1363.05 360.27C1362.88 348.71 1362.8 337.19 1363.89 325.62C1365.04 313.35 1365.32 300.99 1365.57 288.65C1365.7 282.05 1364.98 275.43 1364.61 268.83C1364.25 262.35 1363.67 255.87 1363.52 249.38C1363.32 240.91 1363.51 232.44 1363.42 223.96C1363.29 211.42 1362.64 198.87 1363 186.34C1363.28 176.41 1362.32 166.53 1362.85 156.58C1363.47 144.96 1362.96 133.26 1362.53 121.61C1362.21 112.82 1361.66 104.08 1362.15 95.2501C1362.89 81.7301 1360.69 68.2001 1361.97 54.6201C1362.85 45.2701 1363.02 35.8601 1363.5 26.4801C1363.56 25.2701 1363.51 24.0601 1363.51 22.1601C1361.7 23.1501 1360.26 23.5901 1359.31 24.5301C1356.48 27.3201 1353.05 27.7601 1349.35 27.7101C1342.29 27.6101 1335.22 27.5601 1328.16 27.6001C1325.19 27.6201 1322.21 27.9201 1318.92 28.1201C1320.07 36.3201 1319.37 43.7101 1317.44 50.9101C1316.71 53.6201 1315.41 56.4801 1313.56 58.5301C1305.16 67.7901 1294.75 72.9201 1282.01 72.7301C1279.11 72.6901 1276.21 72.9001 1273.32 72.7101C1269.57 72.4701 1265.57 72.6701 1262.14 71.4201C1253.68 68.34 1248.43 62.4301 1248.92 54.2301C1249.19 49.7801 1250.58 45.3501 1251.89 41.0301C1252.99 37.3701 1254.69 33.8901 1256.55 29.2701C1248 29.8801 1240.48 30.4201 1232.63 30.9801C1232.16 33.5201 1231.37 35.6401 1231.47 37.7201C1231.66 41.7601 1230.31 45.1701 1228.3 48.4801C1227.09 50.4701 1225.97 52.5201 1224.75 54.5101C1219.57 62.9601 1211.86 68.7901 1203.35 73.1701C1197.38 76.2501 1190.42 77.2801 1183.58 77.4401C1174.42 77.6501 1165.61 76.1801 1157.67 71.1701C1153.28 68.4001 1149.79 64.5201 1149.91 59.4201C1150.05 53.5501 1150.72 47.5401 1153.94 42.1401C1156.95 37.0901 1159.39 31.6901 1162.25 26.1301C1161.32 26.0301 1160.49 25.8801 1159.66 25.8801C1156.68 25.8901 1153.36 26.8201 1150.79 25.8101C1144.38 23.3001 1138.04 24.6701 1131.45 24.4301C1131.72 26.7101 1132.03 28.4901 1132.11 30.2901C1132.28 33.8901 1132.1 37.3201 1130.47 40.8101C1127.26 47.6701 1122.05 52.4701 1115.98 56.5501C1114.2 57.7401 1112.2 58.7901 1110.15 59.3701C1101.1 61.9001 1091.99 64.2101 1082.9 66.6201C1075.3 68.6401 1067.81 69.8801 1059.97 67.1101C1055.66 65.5901 1052.51 62.7701 1049.13 60.1101C1044.18 56.2101 1041.32 51.1101 1041.54 44.6901C1041.66 41.0901 1042.14 37.4901 1042.74 33.9301C1043.33 30.4401 1044.28 27.0101 1045.21 22.9501C1032.94 23.5301 1021.31 24.0701 1010.31 24.5901C1008.8 31.7601 1007.65 38.3301 1005.98 44.7601C1004.4 50.8801 1002.11 56.8201 998.016 61.7901C990.066 71.4501 978.976 75.1501 967.276 77.2901C963.796 77.9301 960.036 77.58 956.486 77.09C951.316 76.3801 947.446 73.3901 943.856 69.5601C939.786 65.2101 937.286 60.6001 937.726 54.5501C938.116 49.1801 938.956 43.9001 940.836 38.8401C942.766 33.6501 944.896 28.5301 947.206 22.7201C933.986 22.2801 921.176 20.8501 908.106 24.0501C908.476 25.3001 908.776 26.4801 909.166 27.6401C909.956 30.0101 911.166 32.3001 911.556 34.7301C913.956 49.6901 907.976 61.3101 896.166 69.8601C886.346 76.9701 875.646 81.94 862.776 80.0201C854.426 78.7801 846.836 76.3901 841.276 69.7701C838.066 65.9501 834.766 62.1901 834.126 56.7301C833.006 47.2401 834.836 38.3901 838.826 29.8701C839.706 27.9901 840.686 26.1701 841.936 23.6901C836.186 23.6901 831.156 23.8301 826.136 23.6601C818.536 23.4001 810.936 22.8901 803.336 22.5601C799.326 22.3901 797.986 23.5501 798.316 27.0301C799.846 43.1301 789.936 54.8301 778.266 61.3401C772.126 64.7601 765.506 67.37 758.976 70.0301C744.776 75.8201 731.526 74.23 719.216 64.7801C716.306 62.5501 716.066 59.2001 714.526 56.4201C709.616 47.5701 709.926 38.4101 713.586 29.1901C714.106 27.8901 714.586 26.5801 715.386 24.4801C694.786 25.2701 674.836 23.6601 654.696 25.5201C654.696 27.1001 654.496 28.2101 654.726 29.2201C656.056 35.0201 654.956 40.7501 654.176 46.4401C653.026 54.8601 648.746 61.51 641.496 66.0201C632.416 71.6701 622.646 75.7101 612.346 78.6901C596.576 83.2601 582.056 78.0901 572.266 63.0801C568.896 57.9201 567.186 52.3601 567.786 46.1001C568.296 40.7501 568.476 35.3701 568.796 29.9701C565.406 29.6901 562.026 29.5301 558.686 29.1101C552.226 28.3101 545.796 27.2801 539.326 26.5301C537.816 26.3501 536.226 26.9101 535.536 27.0101C534.246 32.9401 533.116 38.1601 531.986 43.3701C531.336 46.3501 530.516 49.3001 530.086 52.3001C529.126 58.9301 526.046 64.4201 520.666 68.1801C515.066 72.1001 509.236 75.8501 503.066 78.7401C496.946 81.6001 490.346 83.2501 483.376 83.4801C473.776 83.7901 465.166 80.4301 456.856 76.6001C449.936 73.4201 445.406 67.6901 443.506 59.8201C441.176 50.1701 442.176 40.8701 444.716 31.5401C445.216 29.6801 445.846 27.8601 446.666 25.1801C429.196 25.9901 412.486 26.7701 395.576 27.5501C395.576 34.2401 395.576 40.3701 395.576 46.4901C395.576 50.7101 393.836 54.3501 391.056 57.2501C388.576 59.8401 385.576 61.96 382.666 64.09C370.946 72.6301 357.406 77.2201 343.876 81.8201C338.106 83.7801 332.106 83.2401 326.406 82.2101C322.676 81.5301 318.446 79.62 315.976 76.8801C311.386 71.7901 308.026 65.7101 307.526 58.4301C307.106 52.3801 308.296 38.9901 310.176 33.3501C311.356 29.8101 312.586 26.2901 314.006 22.1101C300.286 20.8901 286.766 20.9501 273.086 22.4501C273.276 24.7501 273.576 26.7101 273.556 28.6801C273.526 32.8101 274.066 37.1401 273.026 41.0201C271.036 48.4501 266.776 54.7301 260.696 59.6301C251.266 67.2301 241.326 74.1601 230.826 80.1101C221.006 85.6801 210.466 87.5101 199.016 84.6501C186.016 81.3901 175.546 67.7601 175.876 55.3901C175.936 53.2501 175.706 51.1001 175.636 48.9501C175.356 40.8901 176.146 33.0501 180.056 25.7701C180.966 24.0701 181.466 22.1501 182.266 20.0401C170.466 19.6201 158.996 19.2101 147.446 18.8001C147.806 22.9401 148.256 26.3501 148.356 29.7601C148.506 34.6401 148.796 39.5801 148.296 44.4101C147.856 48.6301 147.026 53.0401 145.256 56.8501C141.386 65.1601 135.716 72.15 127.476 76.7001C124.046 78.6001 120.196 80.0201 117.276 82.5201C111.696 87.3201 104.826 88.12 98.4062 87.84C88.2862 87.4 77.8862 87.3801 68.8162 80.8101C64.2962 77.5401 60.5562 73.9801 57.7062 69.3601C54.7162 64.5001 54.9362 59.1701 54.9263 53.6301C54.9062 42.3601 57.8262 32.2401 64.1762 23.0301C64.8363 22.0701 65.3662 21.0001 66.3562 19.2901C50.2662 18.8701 34.9062 18.4401 18.9362 18.0001C18.9362 19.7701 18.8462 21.7001 18.9562 23.6201C19.0862 25.7801 19.5562 27.9301 19.5963 30.1001C19.7262 37.8501 19.7962 45.6001 19.7862 53.3401C19.7762 62.8201 19.7762 72.3101 19.5462 81.7901C19.2562 93.5001 18.0262 105.24 18.4762 116.92C19.3363 139.65 20.1262 162.37 20.6362 185.11C20.9462 199.08 20.7362 213.07 21.9762 227.09C23.2962 241.89 24.1162 256.84 23.5562 271.79C23.2262 280.62 23.6163 289.47 23.4263 298.3C23.2563 306.24 22.8162 314.18 22.3463 322.12C21.9762 328.37 22.2562 334.63 21.7062 340.9C21.2662 345.88 22.2563 350.98 22.4062 356.03C22.5163 359.8 22.2862 363.58 22.2262 367.35C22.1162 374.21 22.0863 381.07 21.8962 387.93C21.7563 393.13 20.8762 398.37 21.2862 403.51C21.8062 410.18 21.5562 416.74 20.8662 423.36C20.5562 426.4 20.7663 429.49 20.7362 432.55C20.6562 441.41 20.7262 450.28 20.4562 459.13C20.1862 468.11 19.4762 477.07 19.1462 486.05C18.7563 496.33 18.5063 506.62 18.3263 516.91C18.2563 521.73 18.4962 526.57 18.6062 531.99Z"
            fill="#4B4B4B"
         />
         <path
            d="M1365.18 433.09C1364.85 432.29 1365 431.3 1364.95 430.39C1364.62 424.43 1364.43 418.45 1363.93 412.5C1363.63 408.91 1361.82 405.15 1362.52 401.85C1363.87 395.47 1362.73 389.22 1362.95 382.93C1363.22 375.38 1363.16 367.82 1363.05 360.26C1362.88 348.7 1362.8 337.18 1363.89 325.61C1365.04 313.34 1365.32 300.98 1365.57 288.64C1365.7 282.04 1364.98 275.42 1364.61 268.82C1364.25 262.34 1363.67 255.86 1363.52 249.37C1363.32 240.9 1363.51 232.43 1363.42 223.95C1363.29 211.41 1362.64 198.86 1363 186.33C1363.28 176.4 1362.32 166.52 1362.85 156.57C1363.47 144.95 1362.96 133.25 1362.53 121.6C1362.2 112.81 1361.66 104.07 1362.15 95.24C1362.89 81.72 1360.69 68.19 1361.97 54.61C1362.85 45.26 1363.02 35.85 1363.5 26.47C1363.56 25.26 1363.51 24.05 1363.51 22.15C1361.7 23.14 1360.26 23.58 1359.31 24.52C1356.48 27.31 1353.05 27.75 1349.35 27.7C1342.29 27.6 1335.22 27.55 1328.16 27.59C1325.19 27.61 1322.21 27.91 1318.92 28.11C1320.07 36.31 1319.37 43.7 1317.44 50.9C1316.71 53.61 1315.41 56.47 1313.56 58.52C1305.16 67.78 1294.75 72.91 1282.01 72.72C1279.11 72.68 1276.21 72.89 1273.32 72.7C1269.57 72.46 1265.57 72.66 1262.14 71.41C1253.68 68.33 1248.43 62.42 1248.92 54.22C1249.19 49.77 1250.58 45.34 1251.89 41.02C1252.99 37.36 1254.69 33.88 1256.55 29.26C1248 29.87 1240.48 30.41 1232.63 30.97C1232.16 33.51 1231.37 35.63 1231.47 37.71C1231.66 41.75 1230.31 45.16 1228.3 48.47C1227.09 50.46 1225.97 52.51 1224.75 54.5C1219.57 62.95 1211.86 68.78 1203.35 73.16C1197.38 76.24 1190.41 77.27 1183.58 77.43C1174.42 77.64 1165.61 76.17 1157.67 71.16C1153.28 68.39 1149.79 64.51 1149.91 59.41C1150.05 53.54 1150.72 47.53 1153.94 42.13C1156.95 37.08 1159.39 31.68 1162.25 26.12C1161.32 26.02 1160.49 25.87 1159.66 25.87C1156.68 25.88 1153.36 26.81 1150.79 25.8C1144.38 23.29 1138.04 24.66 1131.45 24.42C1131.72 26.7 1132.03 28.48 1132.11 30.28C1132.28 33.88 1132.1 37.31 1130.47 40.8C1127.26 47.66 1122.05 52.46 1115.98 56.54C1114.2 57.73 1112.2 58.78 1110.15 59.36C1101.1 61.89 1091.99 64.2 1082.9 66.61C1075.3 68.63 1067.81 69.87 1059.97 67.1C1055.66 65.58 1052.51 62.76 1049.13 60.1C1044.18 56.2 1041.32 51.1 1041.54 44.68C1041.66 41.08 1042.14 37.48 1042.74 33.92C1043.33 30.43 1044.28 27 1045.21 22.94C1032.94 23.52 1021.31 24.06 1010.31 24.58C1008.8 31.75 1007.65 38.32 1005.98 44.75C1004.4 50.87 1002.11 56.81 998.016 61.78C990.066 71.44 978.976 75.14 967.276 77.28C963.796 77.92 960.036 77.57 956.486 77.08C951.316 76.37 947.446 73.38 943.856 69.55C939.786 65.2 937.286 60.59 937.726 54.54C938.116 49.17 938.956 43.89 940.836 38.83C942.766 33.64 944.896 28.52 947.206 22.71C933.986 22.27 921.176 20.84 908.106 24.04C908.476 25.29 908.776 26.47 909.166 27.63C909.956 30 911.166 32.29 911.556 34.72C913.956 49.68 907.976 61.3 896.166 69.85C886.346 76.96 875.646 81.93 862.776 80.01C854.426 78.77 846.836 76.38 841.276 69.76C838.066 65.94 834.766 62.18 834.126 56.72C833.006 47.23 834.836 38.38 838.826 29.86C839.706 27.98 840.686 26.16 841.936 23.68C836.186 23.68 831.156 23.82 826.136 23.65C818.536 23.39 810.936 22.88 803.336 22.55C799.326 22.38 797.986 23.54 798.316 27.02C799.846 43.12 789.936 54.82 778.266 61.33C772.126 64.75 765.506 67.36 758.976 70.02C744.776 75.81 731.526 74.22 719.216 64.77C716.306 62.54 716.066 59.19 714.526 56.41C709.616 47.56 709.926 38.4 713.586 29.18C714.106 27.88 714.586 26.57 715.386 24.47C694.786 25.26 674.836 23.65 654.696 25.51C654.696 27.09 654.496 28.2 654.726 29.21C656.056 35.01 654.956 40.74 654.176 46.43C653.026 54.85 648.746 61.5 641.496 66.01C632.416 71.66 622.646 75.7 612.346 78.68C596.576 83.25 582.056 78.08 572.266 63.07C568.896 57.91 567.186 52.35 567.786 46.09C568.296 40.74 568.476 35.36 568.796 29.96C565.406 29.68 562.026 29.52 558.686 29.1C552.226 28.3 545.796 27.27 539.326 26.52C537.816 26.35 536.226 26.9 535.536 27C534.246 32.93 533.116 38.15 531.986 43.36C531.336 46.34 530.516 49.29 530.086 52.29C529.126 58.92 526.046 64.41 520.666 68.17C515.066 72.09 509.236 75.84 503.066 78.73C496.946 81.59 490.346 83.24 483.376 83.47C473.776 83.78 465.166 80.42 456.856 76.59C449.936 73.41 445.406 67.68 443.506 59.81C441.176 50.16 442.176 40.86 444.716 31.53C445.216 29.67 445.846 27.85 446.666 25.17C429.196 25.98 412.486 26.76 395.576 27.54C395.576 34.23 395.576 40.36 395.576 46.48C395.576 50.7 393.836 54.34 391.056 57.24C388.576 59.83 385.576 61.95 382.666 64.08C370.946 72.62 357.406 77.21 343.876 81.81C338.106 83.77 332.106 83.23 326.406 82.2C322.676 81.52 318.446 79.61 315.976 76.87C311.386 71.78 308.026 65.7 307.526 58.42C307.106 52.37 308.296 38.98 310.176 33.34C311.356 29.8 312.586 26.28 314.006 22.1C300.286 20.88 286.766 20.94 273.086 22.44C273.276 24.74 273.576 26.7 273.556 28.67C273.526 32.8 274.066 37.13 273.026 41.01C271.036 48.44 266.776 54.72 260.696 59.62C251.266 67.22 241.326 74.15 230.826 80.1C221.006 85.67 210.466 87.5 199.016 84.64C186.016 81.38 175.546 67.75 175.876 55.38C175.936 53.24 175.706 51.09 175.636 48.94C175.356 40.88 176.146 33.04 180.056 25.76C180.966 24.06 181.466 22.14 182.266 20.03C170.466 19.61 158.996 19.2 147.446 18.79C147.806 22.93 148.256 26.34 148.356 29.75C148.506 34.63 148.796 39.57 148.296 44.4C147.856 48.62 147.026 53.03 145.256 56.84C141.386 65.15 135.716 72.14 127.476 76.69C124.046 78.59 120.196 80.01 117.276 82.51C111.696 87.31 104.826 88.11 98.4061 87.83C88.2861 87.39 77.8861 87.37 68.8161 80.8C64.2961 77.53 60.5561 73.97 57.7061 69.35C54.7161 64.49 54.9361 59.16 54.9261 53.62C54.9061 42.35 57.8261 32.23 64.1761 23.02C64.8361 22.06 65.3661 20.99 66.3561 19.28C50.2661 18.87 34.9061 18.44 18.9361 18C18.9361 19.77 18.8461 21.7 18.9561 23.62C19.0861 25.78 19.5561 27.93 19.5961 30.1C19.7261 37.85 19.7961 45.59 19.7861 53.34C19.7761 62.82 19.7761 72.31 19.5461 81.79C19.2561 93.5 18.0261 105.24 18.4761 116.92C19.3361 139.65 20.1261 162.37 20.6361 185.11C20.9461 199.08 20.7361 213.07 21.9761 227.09C23.2961 241.89 24.1161 256.84 23.5561 271.79C23.2261 280.62 23.6161 289.47 23.4261 298.3C23.2561 306.24 22.8161 314.18 22.3461 322.12C21.9761 328.37 22.2561 334.63 21.7061 340.9C21.2661 345.88 22.2561 350.98 22.4061 356.03C22.5161 359.8 22.2861 363.58 22.2261 367.35C22.1161 374.21 22.0861 381.07 21.8961 387.93C21.7561 393.13 20.8761 398.37 21.2861 403.51C21.8061 410.18 21.5561 416.74 20.8661 423.36C20.5561 426.4 20.7661 429.49 20.7361 432.55C20.6561 441.41 20.7261 450.28 20.4561 459.13C20.1861 468.11 19.4761 477.07 19.1461 486.05C18.7561 496.33 18.5061 506.62 18.3261 516.91C18.2461 521.74 18.4861 526.58 18.5961 532C20.9861 531.81 22.7461 531.69 24.4961 531.52C30.7761 530.93 37.0561 530.26 43.3461 529.75C46.9261 529.46 50.5261 529.51 54.1161 529.29C58.1661 529.04 62.1961 528.49 66.2561 528.36C76.0061 528.04 85.7661 527.81 95.5261 527.7C106.326 527.57 117.126 527.52 127.926 527.64C132.426 527.69 137.126 529.3 141.366 528.43C153.636 525.92 165.976 528.13 178.216 527C181.036 526.74 183.886 526.38 186.696 526.56C196.806 527.21 206.896 528.35 217.016 528.76C224.746 529.07 232.516 528.33 240.256 528.49C246.536 528.62 252.786 527.79 259.146 529.01C264.756 530.08 270.656 529.92 276.416 529.79C285.546 529.59 294.666 528.96 303.786 528.5C312.036 528.09 320.276 527.6 328.526 527.26C338.496 526.85 348.466 526.36 358.436 526.26C366.336 526.18 374.246 526.67 382.156 526.78C384.106 526.81 386.066 526.3 388.026 526.08C389.066 525.96 390.126 525.86 391.166 525.87C394.066 525.9 396.956 525.99 399.846 526.06C407.076 526.24 414.306 526.54 421.536 526.54C425.666 526.54 429.796 526.05 433.936 525.75C434.626 525.7 435.306 525.39 435.986 525.4C441.866 525.44 447.746 525.55 453.626 525.59C462.086 525.65 470.546 525.7 479.016 525.7C483.336 525.7 487.656 525.71 491.966 525.49C501.076 525.02 510.176 524.21 519.296 523.9C529.396 523.56 539.506 523.61 549.606 523.51C550.506 523.5 551.396 523.68 552.296 523.73C558.506 524.07 564.706 524.66 570.916 524.68C579.456 524.72 588.006 524.28 596.546 524.15C601.526 524.07 606.506 524.09 611.486 524.25C617.396 524.44 623.526 525.92 629.156 524.82C635.846 523.51 642.136 524.95 648.596 525.04C653.096 525.11 657.596 525.85 662.096 525.91C668.516 525.99 674.936 525.65 681.356 525.63C691.706 525.61 702.046 525.74 712.396 525.75C720.296 525.76 728.206 525.71 736.106 525.62C743.646 525.53 751.196 525.59 758.716 525.12C763.516 524.82 768.366 527.08 773.076 524.75C777.286 527.03 781.726 525.15 785.986 525.16C798.276 525.17 810.606 526.86 822.896 524.5C827.726 523.57 832.806 524.07 837.686 523.34C843.916 522.41 848.126 522.63 853.866 525.04C854.836 525.45 855.986 525.48 857.056 525.54C864.266 525.99 871.476 526.51 878.696 526.8C883.526 527 888.366 526.79 893.196 526.88C900.026 527.02 906.866 527.62 913.676 527.39C928.496 526.9 943.146 528.93 957.856 529.94C965.976 530.5 974.096 531.24 982.226 531.54C989.576 531.81 996.936 531.45 1004.29 531.63C1010.38 531.78 1016.46 532.56 1022.54 532.63C1030.13 532.71 1037.72 532.41 1045.31 532.14C1048.7 532.02 1052.08 531.32 1055.47 531.31C1064.16 531.28 1072.85 531.54 1081.55 531.58C1089.68 531.61 1097.82 531.27 1105.94 531.5C1119.12 531.88 1132.29 532.81 1145.48 533.1C1156.61 533.35 1167.74 533 1178.88 532.95C1179.78 532.95 1180.68 533.2 1181.58 533.21C1188.98 533.36 1196.39 533.74 1203.78 533.58C1219.66 533.24 1235.54 532.55 1251.42 532.14C1262.79 531.84 1274.17 531.84 1285.54 531.54C1296.39 531.25 1307.22 530.57 1318.07 530.39C1324.72 530.28 1331.44 530.28 1338 531.15C1345.41 532.14 1352.77 531.18 1360.14 531.59C1363.38 531.77 1364.38 530.27 1364.46 526.67C1364.61 520.16 1364.77 513.64 1364.63 507.13C1364.5 500.89 1363.76 494.67 1363.77 488.43C1363.78 484.25 1364.72 480.07 1365.06 475.88C1365.55 469.98 1365.7 464.05 1366.3 458.17C1367.17 449.73 1368.57 441.32 1365.18 433.09Z"
            fill="white"
         />
         <path
            d="M294.436 319.51C277.976 319.51 261.516 319.52 245.056 319.51C217.976 319.48 191.086 316.46 164.146 314.23C153.486 313.35 142.816 312.55 132.146 311.77C129.946 311.61 127.126 311.78 126.986 309.03C126.826 305.96 129.786 306.21 131.896 306.26C142.766 306.53 153.626 306.8 164.486 307.27C171.896 307.59 179.296 308.23 186.696 308.74C192.476 309.14 198.256 309.66 204.046 309.96C215.266 310.56 226.486 311.33 237.716 311.51C254.366 311.78 271.016 311.66 287.666 311.57C298.706 311.51 309.736 311.07 320.776 311.03C332.936 310.98 345.086 311.36 357.246 311.27C378.476 311.1 399.696 310.7 420.926 310.42C440.676 310.16 460.436 310.01 480.186 309.68C507.746 309.22 535.296 308.56 562.856 308.13C587.326 307.76 611.806 307.63 636.286 307.32C647.156 307.18 658.016 306.8 668.886 306.63C680.496 306.45 692.106 306.37 703.716 306.28C725.796 306.1 747.866 305.84 769.946 305.82C789.346 305.8 808.746 306.16 828.146 306.17C847.836 306.18 867.536 305.81 887.226 305.88C917.166 305.99 947.106 306.45 977.056 306.54C1000.1 306.61 1023.14 306.41 1046.18 306.2C1082.08 305.87 1117.98 305.43 1153.88 305.01C1176.9 304.74 1199.92 304.33 1222.95 304.17C1236.31 304.08 1249.67 304.34 1263.04 304.51C1264.65 304.53 1266.29 304.86 1267.84 305.3C1269.86 305.88 1270.64 307.49 1270.57 309.5C1270.51 311.57 1269.41 312.94 1267.42 313.42C1266.39 313.67 1265.27 313.64 1264.19 313.62C1249.7 313.42 1235.21 313.12 1220.73 313.01C1206.21 312.9 1191.69 312.9 1177.17 312.98C1165.56 313.04 1153.95 313.32 1142.35 313.43C1131.85 313.54 1121.35 313.59 1110.85 313.62C1081.47 313.71 1052.09 313.89 1022.7 313.83C986.406 313.76 950.116 313.44 913.816 313.34C884.806 313.26 855.796 313.39 826.796 313.36C806.846 313.34 786.896 313.06 766.946 313.15C742.816 313.26 718.686 313.63 694.566 313.91C681.316 314.06 668.066 314.22 654.816 314.41C632.886 314.73 610.956 315 589.026 315.42C560.576 315.97 532.126 316.74 503.676 317.25C483.916 317.61 464.156 317.61 444.396 317.96C427.376 318.26 410.356 318.99 393.336 319.23C378.306 319.43 363.266 319.19 348.236 319.18C330.316 319.16 312.386 319.18 294.466 319.18C294.436 319.29 294.436 319.4 294.436 319.51Z"
            fill="#EAEAEA"
         />
         <path
            d="M1285.49 182.85C1272.5 181.82 1259.52 180.56 1246.51 179.82C1230.2 178.89 1213.88 178.23 1197.55 177.74C1171.08 176.96 1144.6 176.39 1118.13 175.79C1101.44 175.41 1084.74 175.1 1068.05 174.86C1039.56 174.45 1011.08 174.12 982.586 173.75C964.086 173.51 945.586 173.09 927.086 173.04C902.436 172.97 877.786 173.21 853.136 173.26C833.166 173.29 813.206 173.16 793.236 173.22C779.806 173.26 766.376 173.57 752.946 173.67C742.976 173.75 733.006 173.6 723.036 173.71C707.636 173.88 692.226 174.09 676.826 174.46C648.536 175.14 620.246 175.87 591.956 176.72C574.556 177.24 557.156 177.99 539.766 178.7C510.226 179.91 480.676 181.14 451.136 182.43C439.906 182.92 428.686 183.7 417.446 184.22C406.226 184.74 394.996 184.98 383.786 185.55C373.646 186.07 363.526 186.92 353.396 187.55C344.526 188.1 335.656 188.6 326.786 188.99C310.296 189.71 293.806 190.32 277.316 190.99C247.226 192.21 217.146 194.23 187.006 193.05C172.516 192.48 158.026 191.65 143.576 190.54C139.706 190.24 135.916 188.62 132.176 187.35C131.116 186.99 130.056 185.88 129.556 184.84C128.496 182.66 130.136 180.59 132.466 181.21C153.636 186.78 175.296 185.07 196.736 185.09C222.636 185.11 248.546 183.84 274.436 182.89C299.966 181.95 325.486 180.82 351.006 179.53C372.386 178.45 393.746 176.91 415.116 175.79C427.616 175.13 440.156 175 452.656 174.42C471.856 173.53 491.026 172.26 510.226 171.51C529.616 170.75 549.036 170.52 568.426 169.9C591.086 169.17 613.726 168.02 636.386 167.51C657.596 167.03 678.816 167.17 700.036 167C711.286 166.91 722.536 166.74 733.786 166.62C753.536 166.42 773.286 166.11 793.036 166.09C810.816 166.07 828.596 166.53 846.376 166.49C869.226 166.45 892.076 165.93 914.916 165.99C932.336 166.03 949.746 166.75 967.156 166.99C1006.18 167.54 1045.2 167.88 1084.21 168.52C1106.17 168.88 1128.12 169.75 1150.07 170.25C1173.1 170.77 1196.16 170.74 1219.17 171.67C1240.18 172.52 1261.16 174.33 1282.15 175.77C1283.58 175.87 1285 176.3 1286.4 176.64C1288.62 177.18 1290.81 177.94 1290.21 180.88C1289.7 183.55 1287.51 183.39 1285.49 182.85Z"
            fill="#EAEAEA"
         />
         <path
            d="M305.756 446.44C328.246 445.7 350.726 444.84 373.226 444.28C387.916 443.92 402.616 444.08 417.306 443.86C435.596 443.58 453.886 443.13 472.176 442.8C495.396 442.38 518.626 441.98 541.856 441.6C570.856 441.14 599.856 440.68 628.856 440.29C649.536 440.01 670.216 439.83 690.886 439.63C717.206 439.37 743.526 439.1 769.846 438.9C791.456 438.74 813.056 438.75 834.666 438.55C849.366 438.41 864.056 437.99 878.756 437.8C899.986 437.53 921.226 437.24 942.456 437.18C970.966 437.09 999.476 437.2 1027.99 437.26C1046.88 437.3 1065.78 436.94 1084.65 437.59C1110.21 438.47 1135.74 440.09 1161.27 441.5C1181.75 442.63 1202.23 443.91 1222.71 445.16C1242.8 446.39 1262.88 447.81 1282.98 448.88C1288.73 449.19 1294.54 448.68 1300.31 448.39C1303.56 448.23 1305.54 449.23 1305.68 451.53C1305.81 453.8 1304.02 455.7 1300.98 455.64C1289.56 455.42 1278.12 455.25 1266.73 454.55C1247.18 453.34 1227.67 451.66 1208.13 450.34C1185.14 448.79 1162.13 447.47 1139.13 445.94C1108.33 443.89 1077.5 442.86 1046.64 442.84C1026.5 442.82 1006.35 443.07 986.206 443.09C968.046 443.1 949.886 442.78 931.726 442.92C908.876 443.1 886.036 443.63 863.186 443.95C848.136 444.16 833.086 444.24 818.036 444.45C777.736 445.02 737.436 445.67 697.136 446.2C683.726 446.38 670.306 446.08 656.906 446.34C638.036 446.72 619.176 447.51 600.306 447.95C587.236 448.26 574.166 448.21 561.096 448.43C538.986 448.81 516.876 449.25 494.766 449.72C471.206 450.22 447.646 450.8 424.096 451.32C395.796 451.95 367.496 452.63 339.186 453.13C321.776 453.44 304.356 453.27 286.956 453.68C265.756 454.19 244.566 455.03 223.386 455.83C204.526 456.55 185.666 457.43 166.806 458.19C159.186 458.5 151.566 458.67 143.946 458.9C143.036 458.93 142.046 459.15 141.256 458.85C140.536 458.58 139.686 457.8 139.536 457.1C139.386 456.43 139.836 455.24 140.416 454.87C141.436 454.21 142.726 453.79 143.936 453.64C147.346 453.22 150.776 452.91 154.206 452.72C175.226 451.53 196.276 450.83 217.246 449.13C243.456 447 269.706 446.59 295.966 446.03C299.236 445.96 302.496 446.02 305.766 446.02C305.756 446.18 305.756 446.31 305.756 446.44Z"
            fill="#EAEAEA"
         />
      </svg>