<svg width="53" height="72" viewBox="0 0 53 72" fill="none" xmlns="http://www.w3.org/2000/svg">
<path d="M18.1055 21.6885C27.7255 16.5685 36.9155 11.8085 45.9655 6.79848C49.1955 5.00848 51.2255 7.24848 51.7955 10.9385C52.2255 13.6985 51.9155 16.5585 52.0155 19.3785C52.2755 26.7785 52.3655 34.1985 52.9255 41.5785C53.4155 47.9985 50.6455 52.7385 45.1155 54.3085C41.3755 55.3685 38.1255 54.2585 36.3555 51.3185C35.0255 49.1085 34.6055 45.9385 36.0555 43.1685C37.5655 40.2885 39.3355 37.6385 42.4155 36.1685C44.5655 35.1385 43.8355 33.0385 43.9655 31.4185C44.2655 27.5485 44.2655 23.6485 44.2855 19.7585C44.2955 18.5285 44.0155 17.3085 43.8055 15.6185C40.9055 16.9885 38.2755 18.3785 35.5355 19.4985C31.3455 21.2085 27.1255 22.8585 22.8455 24.2885C18.3355 25.7985 18.0955 26.5985 18.5555 31.3785C19.0555 36.5485 18.7555 41.7885 18.8455 46.9985C18.9255 51.0685 18.9355 55.1485 19.2255 59.1985C19.7055 65.8985 15.9855 71.7285 7.75551 70.9485C0.635505 70.2685 -1.3045 65.5385 0.805504 60.8985C1.6655 59.0185 3.2555 57.4185 4.7155 55.8785C6.5555 53.9285 9.06551 53.2785 11.6355 52.7885C12.2455 52.6685 13.1555 51.8685 13.1955 51.3285C13.6655 44.8585 14.1755 38.3885 14.2955 31.9085C14.3455 29.4185 13.1355 26.9185 13.0355 24.3985C12.9055 21.1185 12.7455 17.6285 13.7155 14.5885C14.2855 12.8185 16.8955 11.4285 18.8655 10.4585C24.3355 7.75848 29.9155 5.25849 35.5455 2.87849C38.2455 1.73849 41.1255 1.03848 43.9455 0.188484C44.4555 0.0384841 45.1455 -0.111516 45.5455 0.118484C46.4055 0.608484 47.1355 1.33849 47.9155 1.96849C47.2255 2.68849 46.6755 3.73849 45.8355 4.06849C41.4155 5.77849 36.8855 7.19849 32.4655 8.90849C28.2655 10.5485 24.1155 12.3385 20.0455 14.2685C19.1855 14.6785 18.4555 15.8785 18.1855 16.8585C17.8555 18.0185 18.1055 19.3385 18.1055 21.6885Z" fill="black"/>
</svg>
