<svg width="93" height="59" viewBox="0 0 93 59" fill="none" xmlns="http://www.w3.org/2000/svg">
<path d="M5.27104 11.3825C5.84829 10.5309 6.93904 8.97966 7.97718 7.39515C8.63349 6.38703 9.15262 5.29341 9.83324 4.30667C10.2732 3.67098 10.7741 2.93804 11.4963 2.66083C12.0631 2.45235 13.0221 2.81599 13.7824 3.03475C16.7082 3.86703 19.6379 4.68982 22.5292 5.63598C23.3304 5.89986 23.958 6.68805 24.7557 7.03972C26.2414 7.70266 27.7919 8.56022 29.3101 8.71774C31.9422 8.99695 34.0611 9.86434 36.0882 11.5527C37.9111 13.0772 39.6962 14.6919 42.2425 15.3816C43.684 15.7692 45.0166 16.686 46.3819 17.3821C50.1726 19.3254 53.9575 21.2664 57.7382 23.2334C61.4926 25.1839 65.233 27.1675 68.9914 29.1085C72.3506 30.8427 75.7257 32.539 79.0909 34.259C81.925 35.7059 84.8473 37.0222 87.5368 38.6707C88.9089 39.5091 89.6689 40.9334 89.4118 42.5444C88.9763 45.2304 87.5973 47.4364 86.0892 49.6328C84.7044 51.6466 83.498 53.7745 82.3842 55.9356C81.8015 57.0695 80.7916 57.477 79.5429 57.2485C78.6466 57.0842 77.7459 56.4548 76.9461 55.9181C76.2139 55.4264 75.6961 54.662 74.9499 54.2036C71.2268 51.9091 67.4918 49.6431 63.7062 47.434C60.1068 45.3365 56.4289 43.3624 52.8255 41.2744C49.8747 39.5665 47.0059 37.7424 44.0687 36.0179C40.667 34.0202 37.244 32.0415 33.7991 30.115C27.6355 26.6729 21.431 23.2806 15.2614 19.8527C13.2594 18.7386 11.3067 17.5391 9.29509 16.4321C8.73809 16.1257 8.07071 15.9236 7.44335 15.8164C5.08135 15.433 4.08344 14.0205 5.27104 11.3825Z" fill="#DD960B" fill-opacity="0.6"/>
<path d="M78.5126 2.30006C80.1086 2.18455 82.6132 4.39313 83.2591 6.30951C83.7152 7.66326 84.2703 9.06223 85.1107 10.1971C86.4745 12.0429 86.4769 15.0438 84.8798 16.6193C84.6016 16.8941 84.3208 17.3264 84.3156 17.6876C84.2936 19.1213 83.3091 20.6226 81.9507 21.2654C78.932 22.6894 75.9004 24.1034 72.9288 25.6201C69.8102 27.2142 66.7921 28.9987 63.664 30.5649C59.7228 32.5398 55.6868 34.3236 51.7448 36.2928C47.7585 38.2794 43.8374 40.4088 39.8743 42.4389C34.3512 45.2603 28.7947 48.0047 23.2924 50.8525C20.9443 52.0667 18.6454 53.3908 16.41 54.7997C13.9058 56.3774 11.073 55.4855 9.77495 52.8517C8.57814 50.414 7.04744 48.1363 5.67013 45.7862C5.30323 45.1595 4.85851 44.5604 4.60797 43.8894C4.47286 43.5231 4.53239 42.9105 4.76679 42.6123C5.91242 41.1423 7.1787 39.8834 8.92843 38.9858C12.0619 37.3724 15.0001 35.3773 18.062 33.6161C20.512 32.2025 23.0307 30.9137 25.5039 29.5436C27.858 28.2413 30.1809 26.8792 32.5437 25.5991C33.831 24.9016 35.1964 24.3568 36.4909 23.6699C38.488 22.6179 40.4396 21.4846 42.431 20.4334C45.8374 18.6389 49.2447 16.85 52.683 15.1211C55.7175 13.5962 58.8294 12.2182 61.8496 10.6719C63.2833 9.93784 64.5392 8.86638 65.957 8.09947C67.4569 7.29276 69.0652 6.69289 70.6041 5.9625C72.8658 4.88757 75.1107 3.7741 77.3659 2.69419C77.7269 2.51906 78.1284 2.43168 78.5126 2.30006Z" fill="#DD960B" fill-opacity="0.6"/>
</svg>
