<svg width="20" height="20" viewBox="0 0 20 20" fill="none" xmlns="http://www.w3.org/2000/svg">
<path d="M10.1415 19.4462C5.63149 19.2762 0.891489 16.0462 0.151489 12.4362C-0.668511 8.43618 1.90149 4.26618 6.38149 2.17618C7.77149 1.52618 9.03149 0.0861807 10.4015 0.0161807C15.3615 -0.233819 18.2315 2.41618 19.4615 7.75618C20.2915 11.3562 17.7115 16.3162 14.0315 18.0362C12.7915 18.6262 11.4415 18.9862 10.1415 19.4462ZM8.37149 4.99618C6.24149 4.81618 5.21149 6.45618 4.64149 10.1062C4.29149 12.3262 6.59149 13.7262 9.38149 13.9262C11.7515 14.1062 14.0015 11.9062 14.2315 9.20618C14.4315 6.99618 12.1015 5.32618 8.37149 4.99618Z" fill="rgb(89, 89, 89)"/>
<path d="M8.37147 4.99618C12.0915 5.32618 14.4215 6.99618 14.2315 9.20618C14.0015 11.9062 11.7515 14.1062 9.38148 13.9262C6.59148 13.7162 4.30148 12.3262 4.64148 10.1062C5.21148 6.45618 6.24147 4.81618 8.37147 4.99618Z" fill="white"/>
</svg>
