<svg width="107" height="13" viewBox="0 0 107 13" fill="none" xmlns="http://www.w3.org/2000/svg">
<path d="M39.52 10.43C32.45 10.84 25.14 11.33 17.82 11.68C13.23 11.9 8.63 11.93 4.04 12.01C3.34 12.02 2.49 12.02 1.97 11.66C1.19 11.12 0.64 10.25 0 9.50998C0.72 8.99998 1.41 8.11998 2.18 8.02998C8.71 7.34998 15.25 6.81998 21.79 6.21998C28.56 5.60998 35.32 4.78998 42.1 4.40998C47.03 4.13998 51.99 4.57998 56.94 4.43998C61.66 4.29998 66.38 3.88998 71.1 3.47998C78.52 2.82998 85.92 2.03998 93.34 1.39998C96.44 1.12998 99.57 0.889979 102.67 1.02998C105.31 1.13998 106.68 2.84998 106.48 5.18998C106.26 7.79998 104.18 8.26998 102.18 8.38998C96.88 8.72998 91.56 8.80998 86.25 9.16998C79.22 9.64998 72.2 10.54 65.17 10.79C59.07 11.01 52.94 10.56 46.82 10.44C44.47 10.39 42.12 10.43 39.52 10.43Z" fill="rgb(89, 89, 89)"/>
</svg>
